%TF.GenerationSoftware,KiCad,Pcbnew,(6.0.8)*%
%TF.CreationDate,2022-10-25T18:18:37+09:00*%
%TF.ProjectId,amp-input,616d702d-696e-4707-9574-2e6b69636164,rev?*%
%TF.SameCoordinates,Original*%
%TF.FileFunction,Legend,Bot*%
%TF.FilePolarity,Positive*%
%FSLAX46Y46*%
G04 Gerber Fmt 4.6, Leading zero omitted, Abs format (unit mm)*
G04 Created by KiCad (PCBNEW (6.0.8)) date 2022-10-25 18:18:37*
%MOMM*%
%LPD*%
G01*
G04 APERTURE LIST*
%ADD10C,0.150000*%
%ADD11C,0.010000*%
%ADD12C,0.120000*%
G04 APERTURE END LIST*
D10*
%TO.C,R1*%
X158681380Y-98512333D02*
X158205190Y-98179000D01*
X158681380Y-97940904D02*
X157681380Y-97940904D01*
X157681380Y-98321857D01*
X157729000Y-98417095D01*
X157776619Y-98464714D01*
X157871857Y-98512333D01*
X158014714Y-98512333D01*
X158109952Y-98464714D01*
X158157571Y-98417095D01*
X158205190Y-98321857D01*
X158205190Y-97940904D01*
X158681380Y-99464714D02*
X158681380Y-98893285D01*
X158681380Y-99179000D02*
X157681380Y-99179000D01*
X157824238Y-99083761D01*
X157919476Y-98988523D01*
X157967095Y-98893285D01*
%TO.C,R2*%
X156395380Y-98512333D02*
X155919190Y-98179000D01*
X156395380Y-97940904D02*
X155395380Y-97940904D01*
X155395380Y-98321857D01*
X155443000Y-98417095D01*
X155490619Y-98464714D01*
X155585857Y-98512333D01*
X155728714Y-98512333D01*
X155823952Y-98464714D01*
X155871571Y-98417095D01*
X155919190Y-98321857D01*
X155919190Y-97940904D01*
X155490619Y-98893285D02*
X155443000Y-98940904D01*
X155395380Y-99036142D01*
X155395380Y-99274238D01*
X155443000Y-99369476D01*
X155490619Y-99417095D01*
X155585857Y-99464714D01*
X155681095Y-99464714D01*
X155823952Y-99417095D01*
X156395380Y-98845666D01*
X156395380Y-99464714D01*
%TO.C,LOGO1*%
G36*
X98224732Y-97215527D02*
G01*
X98290387Y-97223308D01*
X98343676Y-97248187D01*
X98405648Y-97298742D01*
X98450126Y-97341355D01*
X98495419Y-97394383D01*
X98532318Y-97454083D01*
X98562966Y-97526864D01*
X98589508Y-97619139D01*
X98614087Y-97737318D01*
X98638848Y-97887811D01*
X98665935Y-98077030D01*
X98680017Y-98168058D01*
X98709265Y-98304574D01*
X98742411Y-98403284D01*
X98778367Y-98462683D01*
X98816044Y-98481266D01*
X98854354Y-98457528D01*
X98892209Y-98389964D01*
X98894648Y-98383845D01*
X98918912Y-98290713D01*
X98935386Y-98164853D01*
X98943744Y-98017329D01*
X98943658Y-97859207D01*
X98934802Y-97701550D01*
X98916850Y-97555423D01*
X98915547Y-97547534D01*
X98900064Y-97449465D01*
X98892808Y-97384674D01*
X98894009Y-97342492D01*
X98903895Y-97312250D01*
X98922696Y-97283280D01*
X98924444Y-97280930D01*
X98985463Y-97231677D01*
X99056783Y-97222048D01*
X99126254Y-97253802D01*
X99135207Y-97262934D01*
X99165621Y-97322427D01*
X99191984Y-97416810D01*
X99213680Y-97537956D01*
X99230091Y-97677741D01*
X99240598Y-97828039D01*
X99244584Y-97980725D01*
X99241432Y-98127672D01*
X99230524Y-98260756D01*
X99211242Y-98371851D01*
X99181387Y-98474071D01*
X99114826Y-98617332D01*
X99029080Y-98720102D01*
X98924486Y-98782024D01*
X98801382Y-98802744D01*
X98738606Y-98800862D01*
X98688790Y-98789225D01*
X98645257Y-98759479D01*
X98590312Y-98703284D01*
X98575589Y-98687256D01*
X98533596Y-98639626D01*
X98499503Y-98594638D01*
X98471472Y-98546356D01*
X98447664Y-98488844D01*
X98426241Y-98416168D01*
X98405365Y-98322390D01*
X98383198Y-98201577D01*
X98357901Y-98047791D01*
X98327635Y-97855097D01*
X98321540Y-97818205D01*
X98294177Y-97692989D01*
X98262570Y-97602150D01*
X98228275Y-97549348D01*
X98192849Y-97538241D01*
X98184270Y-97543506D01*
X98154006Y-97579530D01*
X98120589Y-97636033D01*
X98108554Y-97661746D01*
X98094105Y-97704533D01*
X98084508Y-97757541D01*
X98078845Y-97829549D01*
X98076198Y-97929339D01*
X98075648Y-98065691D01*
X98075795Y-98101419D01*
X98078027Y-98237265D01*
X98082497Y-98367722D01*
X98088657Y-98479470D01*
X98095958Y-98559185D01*
X98104131Y-98630525D01*
X98105704Y-98689291D01*
X98096464Y-98727261D01*
X98075018Y-98757623D01*
X98067800Y-98764968D01*
X98003969Y-98797798D01*
X97932342Y-98795147D01*
X97870832Y-98757063D01*
X97847516Y-98716140D01*
X97822013Y-98643852D01*
X97801824Y-98558626D01*
X97800621Y-98551693D01*
X97790141Y-98465974D01*
X97781355Y-98350688D01*
X97775152Y-98220074D01*
X97772422Y-98088369D01*
X97772338Y-98055759D01*
X97777315Y-97858257D01*
X97793399Y-97697438D01*
X97822592Y-97566497D01*
X97866897Y-97458625D01*
X97928317Y-97367017D01*
X98008855Y-97284866D01*
X98061541Y-97244444D01*
X98120900Y-97221088D01*
X98200688Y-97215244D01*
X98224732Y-97215527D01*
G37*
D11*
X98224732Y-97215527D02*
X98290387Y-97223308D01*
X98343676Y-97248187D01*
X98405648Y-97298742D01*
X98450126Y-97341355D01*
X98495419Y-97394383D01*
X98532318Y-97454083D01*
X98562966Y-97526864D01*
X98589508Y-97619139D01*
X98614087Y-97737318D01*
X98638848Y-97887811D01*
X98665935Y-98077030D01*
X98680017Y-98168058D01*
X98709265Y-98304574D01*
X98742411Y-98403284D01*
X98778367Y-98462683D01*
X98816044Y-98481266D01*
X98854354Y-98457528D01*
X98892209Y-98389964D01*
X98894648Y-98383845D01*
X98918912Y-98290713D01*
X98935386Y-98164853D01*
X98943744Y-98017329D01*
X98943658Y-97859207D01*
X98934802Y-97701550D01*
X98916850Y-97555423D01*
X98915547Y-97547534D01*
X98900064Y-97449465D01*
X98892808Y-97384674D01*
X98894009Y-97342492D01*
X98903895Y-97312250D01*
X98922696Y-97283280D01*
X98924444Y-97280930D01*
X98985463Y-97231677D01*
X99056783Y-97222048D01*
X99126254Y-97253802D01*
X99135207Y-97262934D01*
X99165621Y-97322427D01*
X99191984Y-97416810D01*
X99213680Y-97537956D01*
X99230091Y-97677741D01*
X99240598Y-97828039D01*
X99244584Y-97980725D01*
X99241432Y-98127672D01*
X99230524Y-98260756D01*
X99211242Y-98371851D01*
X99181387Y-98474071D01*
X99114826Y-98617332D01*
X99029080Y-98720102D01*
X98924486Y-98782024D01*
X98801382Y-98802744D01*
X98738606Y-98800862D01*
X98688790Y-98789225D01*
X98645257Y-98759479D01*
X98590312Y-98703284D01*
X98575589Y-98687256D01*
X98533596Y-98639626D01*
X98499503Y-98594638D01*
X98471472Y-98546356D01*
X98447664Y-98488844D01*
X98426241Y-98416168D01*
X98405365Y-98322390D01*
X98383198Y-98201577D01*
X98357901Y-98047791D01*
X98327635Y-97855097D01*
X98321540Y-97818205D01*
X98294177Y-97692989D01*
X98262570Y-97602150D01*
X98228275Y-97549348D01*
X98192849Y-97538241D01*
X98184270Y-97543506D01*
X98154006Y-97579530D01*
X98120589Y-97636033D01*
X98108554Y-97661746D01*
X98094105Y-97704533D01*
X98084508Y-97757541D01*
X98078845Y-97829549D01*
X98076198Y-97929339D01*
X98075648Y-98065691D01*
X98075795Y-98101419D01*
X98078027Y-98237265D01*
X98082497Y-98367722D01*
X98088657Y-98479470D01*
X98095958Y-98559185D01*
X98104131Y-98630525D01*
X98105704Y-98689291D01*
X98096464Y-98727261D01*
X98075018Y-98757623D01*
X98067800Y-98764968D01*
X98003969Y-98797798D01*
X97932342Y-98795147D01*
X97870832Y-98757063D01*
X97847516Y-98716140D01*
X97822013Y-98643852D01*
X97801824Y-98558626D01*
X97800621Y-98551693D01*
X97790141Y-98465974D01*
X97781355Y-98350688D01*
X97775152Y-98220074D01*
X97772422Y-98088369D01*
X97772338Y-98055759D01*
X97777315Y-97858257D01*
X97793399Y-97697438D01*
X97822592Y-97566497D01*
X97866897Y-97458625D01*
X97928317Y-97367017D01*
X98008855Y-97284866D01*
X98061541Y-97244444D01*
X98120900Y-97221088D01*
X98200688Y-97215244D01*
X98224732Y-97215527D01*
G36*
X97949212Y-88770706D02*
G01*
X97903165Y-88764822D01*
X97871421Y-88756632D01*
X97848475Y-88745755D01*
X97828826Y-88731812D01*
X97769071Y-88684809D01*
X97769872Y-88461316D01*
X98063892Y-88461316D01*
X98948357Y-88461316D01*
X98947457Y-88285557D01*
X98942482Y-88151120D01*
X98919879Y-87965499D01*
X98880626Y-87806161D01*
X98826437Y-87681658D01*
X98784795Y-87619502D01*
X98724997Y-87563011D01*
X98639762Y-87516124D01*
X98607687Y-87501806D01*
X98542394Y-87478053D01*
X98493314Y-87473171D01*
X98443636Y-87484446D01*
X98411739Y-87495950D01*
X98291387Y-87562103D01*
X98199472Y-87657203D01*
X98132906Y-87785303D01*
X98088600Y-87950455D01*
X98087591Y-87956068D01*
X98075613Y-88049052D01*
X98067120Y-88162348D01*
X98063892Y-88272713D01*
X98063892Y-88461316D01*
X97769872Y-88461316D01*
X97770264Y-88351946D01*
X97770863Y-88282044D01*
X97777755Y-88084198D01*
X97793188Y-87921552D01*
X97818415Y-87786764D01*
X97854686Y-87672489D01*
X97903252Y-87571386D01*
X97907103Y-87564639D01*
X97980867Y-87448499D01*
X98055129Y-87363413D01*
X98142488Y-87297487D01*
X98255545Y-87238827D01*
X98274861Y-87230225D01*
X98401797Y-87184868D01*
X98513048Y-87170864D01*
X98623592Y-87188144D01*
X98748411Y-87236643D01*
X98751812Y-87238242D01*
X98891275Y-87319506D01*
X99004978Y-87421327D01*
X99094511Y-87547338D01*
X99161466Y-87701174D01*
X99207431Y-87886467D01*
X99233999Y-88106852D01*
X99242760Y-88365963D01*
X99242770Y-88373138D01*
X99242489Y-88493715D01*
X99240407Y-88577950D01*
X99235196Y-88634429D01*
X99225528Y-88671732D01*
X99210076Y-88698445D01*
X99187513Y-88723150D01*
X99131847Y-88778816D01*
X98510214Y-88778816D01*
X98386453Y-88778765D01*
X98228179Y-88778312D01*
X98106216Y-88777071D01*
X98063892Y-88775952D01*
X98015061Y-88774662D01*
X97949212Y-88770706D01*
G37*
X97949212Y-88770706D02*
X97903165Y-88764822D01*
X97871421Y-88756632D01*
X97848475Y-88745755D01*
X97828826Y-88731812D01*
X97769071Y-88684809D01*
X97769872Y-88461316D01*
X98063892Y-88461316D01*
X98948357Y-88461316D01*
X98947457Y-88285557D01*
X98942482Y-88151120D01*
X98919879Y-87965499D01*
X98880626Y-87806161D01*
X98826437Y-87681658D01*
X98784795Y-87619502D01*
X98724997Y-87563011D01*
X98639762Y-87516124D01*
X98607687Y-87501806D01*
X98542394Y-87478053D01*
X98493314Y-87473171D01*
X98443636Y-87484446D01*
X98411739Y-87495950D01*
X98291387Y-87562103D01*
X98199472Y-87657203D01*
X98132906Y-87785303D01*
X98088600Y-87950455D01*
X98087591Y-87956068D01*
X98075613Y-88049052D01*
X98067120Y-88162348D01*
X98063892Y-88272713D01*
X98063892Y-88461316D01*
X97769872Y-88461316D01*
X97770264Y-88351946D01*
X97770863Y-88282044D01*
X97777755Y-88084198D01*
X97793188Y-87921552D01*
X97818415Y-87786764D01*
X97854686Y-87672489D01*
X97903252Y-87571386D01*
X97907103Y-87564639D01*
X97980867Y-87448499D01*
X98055129Y-87363413D01*
X98142488Y-87297487D01*
X98255545Y-87238827D01*
X98274861Y-87230225D01*
X98401797Y-87184868D01*
X98513048Y-87170864D01*
X98623592Y-87188144D01*
X98748411Y-87236643D01*
X98751812Y-87238242D01*
X98891275Y-87319506D01*
X99004978Y-87421327D01*
X99094511Y-87547338D01*
X99161466Y-87701174D01*
X99207431Y-87886467D01*
X99233999Y-88106852D01*
X99242760Y-88365963D01*
X99242770Y-88373138D01*
X99242489Y-88493715D01*
X99240407Y-88577950D01*
X99235196Y-88634429D01*
X99225528Y-88671732D01*
X99210076Y-88698445D01*
X99187513Y-88723150D01*
X99131847Y-88778816D01*
X98510214Y-88778816D01*
X98386453Y-88778765D01*
X98228179Y-88778312D01*
X98106216Y-88777071D01*
X98063892Y-88775952D01*
X98015061Y-88774662D01*
X97949212Y-88770706D01*
G36*
X98658123Y-96240145D02*
G01*
X98814637Y-96240657D01*
X98935193Y-96241951D01*
X99025047Y-96244370D01*
X99089458Y-96248260D01*
X99133683Y-96253966D01*
X99162980Y-96261832D01*
X99182607Y-96272202D01*
X99197821Y-96285423D01*
X99236033Y-96344050D01*
X99234346Y-96410607D01*
X99187513Y-96479221D01*
X99131847Y-96534887D01*
X98502948Y-96534887D01*
X98334137Y-96534805D01*
X98185031Y-96534285D01*
X98071020Y-96532938D01*
X97986703Y-96530371D01*
X97926682Y-96526195D01*
X97885556Y-96520018D01*
X97857927Y-96511450D01*
X97838394Y-96500100D01*
X97821560Y-96485577D01*
X97778440Y-96422369D01*
X97774891Y-96351724D01*
X97814428Y-96285423D01*
X97826218Y-96274762D01*
X97844467Y-96263814D01*
X97871269Y-96255445D01*
X97911881Y-96249309D01*
X97971562Y-96245062D01*
X98055570Y-96242359D01*
X98169161Y-96240855D01*
X98317593Y-96240206D01*
X98506125Y-96240066D01*
X98658123Y-96240145D01*
G37*
X98658123Y-96240145D02*
X98814637Y-96240657D01*
X98935193Y-96241951D01*
X99025047Y-96244370D01*
X99089458Y-96248260D01*
X99133683Y-96253966D01*
X99162980Y-96261832D01*
X99182607Y-96272202D01*
X99197821Y-96285423D01*
X99236033Y-96344050D01*
X99234346Y-96410607D01*
X99187513Y-96479221D01*
X99131847Y-96534887D01*
X98502948Y-96534887D01*
X98334137Y-96534805D01*
X98185031Y-96534285D01*
X98071020Y-96532938D01*
X97986703Y-96530371D01*
X97926682Y-96526195D01*
X97885556Y-96520018D01*
X97857927Y-96511450D01*
X97838394Y-96500100D01*
X97821560Y-96485577D01*
X97778440Y-96422369D01*
X97774891Y-96351724D01*
X97814428Y-96285423D01*
X97826218Y-96274762D01*
X97844467Y-96263814D01*
X97871269Y-96255445D01*
X97911881Y-96249309D01*
X97971562Y-96245062D01*
X98055570Y-96242359D01*
X98169161Y-96240855D01*
X98317593Y-96240206D01*
X98506125Y-96240066D01*
X98658123Y-96240145D01*
G36*
X98337730Y-91593796D02*
G01*
X98523812Y-91595639D01*
X99156529Y-91602298D01*
X99199854Y-91655837D01*
X99232381Y-91708200D01*
X99237948Y-91774210D01*
X99199873Y-91843580D01*
X99192672Y-91852242D01*
X99175536Y-91868579D01*
X99152249Y-91880691D01*
X99116278Y-91889452D01*
X99061091Y-91895735D01*
X98980154Y-91900415D01*
X98866937Y-91904364D01*
X98714906Y-91908458D01*
X98273244Y-91919798D01*
X98602295Y-92282655D01*
X98760264Y-92456905D01*
X98897661Y-92609125D01*
X99008854Y-92733953D01*
X99095982Y-92834596D01*
X99161186Y-92914265D01*
X99206604Y-92976166D01*
X99234376Y-93023508D01*
X99246641Y-93059501D01*
X99245539Y-93087351D01*
X99233209Y-93110268D01*
X99211791Y-93131459D01*
X99183423Y-93154134D01*
X99171448Y-93163079D01*
X99150364Y-93175130D01*
X99122590Y-93184330D01*
X99082603Y-93191062D01*
X99024878Y-93195712D01*
X98943891Y-93198660D01*
X98834119Y-93200292D01*
X98690038Y-93200990D01*
X98506125Y-93201137D01*
X98388542Y-93201091D01*
X98229660Y-93200652D01*
X98107232Y-93199429D01*
X98015731Y-93197037D01*
X97949636Y-93193093D01*
X97903422Y-93187214D01*
X97871565Y-93179017D01*
X97848541Y-93168118D01*
X97828826Y-93154134D01*
X97779822Y-93093005D01*
X97774037Y-93022807D01*
X97812388Y-92948516D01*
X97819370Y-92940110D01*
X97836501Y-92923685D01*
X97859706Y-92911510D01*
X97895530Y-92902706D01*
X97950519Y-92896394D01*
X98031217Y-92891698D01*
X98144170Y-92887738D01*
X98295924Y-92883637D01*
X98736142Y-92872298D01*
X98252712Y-92339351D01*
X98118563Y-92191024D01*
X98001812Y-92060083D01*
X97911495Y-91955228D01*
X97845357Y-91872713D01*
X97801145Y-91808791D01*
X97776606Y-91759716D01*
X97769483Y-91721743D01*
X97777525Y-91691126D01*
X97798476Y-91664117D01*
X97830083Y-91636973D01*
X97847126Y-91624426D01*
X97868375Y-91613113D01*
X97896818Y-91604653D01*
X97937905Y-91598723D01*
X97997089Y-91594996D01*
X98079820Y-91593150D01*
X98191550Y-91592858D01*
X98337730Y-91593796D01*
G37*
X98337730Y-91593796D02*
X98523812Y-91595639D01*
X99156529Y-91602298D01*
X99199854Y-91655837D01*
X99232381Y-91708200D01*
X99237948Y-91774210D01*
X99199873Y-91843580D01*
X99192672Y-91852242D01*
X99175536Y-91868579D01*
X99152249Y-91880691D01*
X99116278Y-91889452D01*
X99061091Y-91895735D01*
X98980154Y-91900415D01*
X98866937Y-91904364D01*
X98714906Y-91908458D01*
X98273244Y-91919798D01*
X98602295Y-92282655D01*
X98760264Y-92456905D01*
X98897661Y-92609125D01*
X99008854Y-92733953D01*
X99095982Y-92834596D01*
X99161186Y-92914265D01*
X99206604Y-92976166D01*
X99234376Y-93023508D01*
X99246641Y-93059501D01*
X99245539Y-93087351D01*
X99233209Y-93110268D01*
X99211791Y-93131459D01*
X99183423Y-93154134D01*
X99171448Y-93163079D01*
X99150364Y-93175130D01*
X99122590Y-93184330D01*
X99082603Y-93191062D01*
X99024878Y-93195712D01*
X98943891Y-93198660D01*
X98834119Y-93200292D01*
X98690038Y-93200990D01*
X98506125Y-93201137D01*
X98388542Y-93201091D01*
X98229660Y-93200652D01*
X98107232Y-93199429D01*
X98015731Y-93197037D01*
X97949636Y-93193093D01*
X97903422Y-93187214D01*
X97871565Y-93179017D01*
X97848541Y-93168118D01*
X97828826Y-93154134D01*
X97779822Y-93093005D01*
X97774037Y-93022807D01*
X97812388Y-92948516D01*
X97819370Y-92940110D01*
X97836501Y-92923685D01*
X97859706Y-92911510D01*
X97895530Y-92902706D01*
X97950519Y-92896394D01*
X98031217Y-92891698D01*
X98144170Y-92887738D01*
X98295924Y-92883637D01*
X98736142Y-92872298D01*
X98252712Y-92339351D01*
X98118563Y-92191024D01*
X98001812Y-92060083D01*
X97911495Y-91955228D01*
X97845357Y-91872713D01*
X97801145Y-91808791D01*
X97776606Y-91759716D01*
X97769483Y-91721743D01*
X97777525Y-91691126D01*
X97798476Y-91664117D01*
X97830083Y-91636973D01*
X97847126Y-91624426D01*
X97868375Y-91613113D01*
X97896818Y-91604653D01*
X97937905Y-91598723D01*
X97997089Y-91594996D01*
X98079820Y-91593150D01*
X98191550Y-91592858D01*
X98337730Y-91593796D01*
G36*
X97964508Y-99380755D02*
G01*
X98018535Y-99415066D01*
X98027792Y-99425068D01*
X98040423Y-99444706D01*
X98049714Y-99473063D01*
X98056176Y-99516245D01*
X98060315Y-99580359D01*
X98062642Y-99671510D01*
X98063665Y-99795806D01*
X98063892Y-99959351D01*
X98063892Y-100458280D01*
X98381392Y-100458280D01*
X98381392Y-100134487D01*
X98381684Y-100062531D01*
X98385145Y-99930697D01*
X98394055Y-99835793D01*
X98410336Y-99772040D01*
X98435911Y-99733657D01*
X98472703Y-99714866D01*
X98522634Y-99709887D01*
X98563327Y-99711489D01*
X98607173Y-99722040D01*
X98638013Y-99747742D01*
X98658093Y-99794630D01*
X98669657Y-99868737D01*
X98674949Y-99976099D01*
X98676214Y-100122748D01*
X98676214Y-100460543D01*
X98806616Y-100453742D01*
X98937017Y-100446941D01*
X98943142Y-99949296D01*
X98944907Y-99823555D01*
X98947809Y-99686022D01*
X98951688Y-99583759D01*
X98957012Y-99510929D01*
X98964251Y-99461696D01*
X98973873Y-99430225D01*
X98986344Y-99410680D01*
X98999207Y-99398596D01*
X99062853Y-99372462D01*
X99134544Y-99379615D01*
X99196938Y-99419342D01*
X99202810Y-99425874D01*
X99215570Y-99443914D01*
X99225318Y-99468230D01*
X99232458Y-99504403D01*
X99237394Y-99558017D01*
X99240531Y-99634656D01*
X99242271Y-99739903D01*
X99243019Y-99879339D01*
X99243178Y-100058550D01*
X99243146Y-100168504D01*
X99242760Y-100323386D01*
X99241585Y-100441805D01*
X99239192Y-100529368D01*
X99235149Y-100591682D01*
X99229026Y-100634357D01*
X99220391Y-100662998D01*
X99208816Y-100683214D01*
X99193868Y-100700613D01*
X99190491Y-100704198D01*
X99175346Y-100718751D01*
X99157230Y-100730085D01*
X99130844Y-100738604D01*
X99090891Y-100744709D01*
X99032072Y-100748802D01*
X98949089Y-100751286D01*
X98836643Y-100752563D01*
X98689437Y-100753034D01*
X98502171Y-100753101D01*
X98355943Y-100753028D01*
X98198893Y-100752529D01*
X98077927Y-100751250D01*
X97987768Y-100748845D01*
X97923141Y-100744966D01*
X97878770Y-100739264D01*
X97849378Y-100731392D01*
X97829689Y-100721001D01*
X97814428Y-100707744D01*
X97808046Y-100701046D01*
X97795770Y-100683926D01*
X97786379Y-100659815D01*
X97779488Y-100623232D01*
X97774712Y-100568695D01*
X97771667Y-100490725D01*
X97769969Y-100383841D01*
X97769231Y-100242561D01*
X97769071Y-100061405D01*
X97769095Y-99976811D01*
X97769460Y-99813793D01*
X97770571Y-99688251D01*
X97772812Y-99594703D01*
X97776568Y-99527670D01*
X97782223Y-99481671D01*
X97790161Y-99451224D01*
X97800768Y-99430849D01*
X97814428Y-99415066D01*
X97857820Y-99385482D01*
X97916482Y-99369708D01*
X97964508Y-99380755D01*
G37*
X97964508Y-99380755D02*
X98018535Y-99415066D01*
X98027792Y-99425068D01*
X98040423Y-99444706D01*
X98049714Y-99473063D01*
X98056176Y-99516245D01*
X98060315Y-99580359D01*
X98062642Y-99671510D01*
X98063665Y-99795806D01*
X98063892Y-99959351D01*
X98063892Y-100458280D01*
X98381392Y-100458280D01*
X98381392Y-100134487D01*
X98381684Y-100062531D01*
X98385145Y-99930697D01*
X98394055Y-99835793D01*
X98410336Y-99772040D01*
X98435911Y-99733657D01*
X98472703Y-99714866D01*
X98522634Y-99709887D01*
X98563327Y-99711489D01*
X98607173Y-99722040D01*
X98638013Y-99747742D01*
X98658093Y-99794630D01*
X98669657Y-99868737D01*
X98674949Y-99976099D01*
X98676214Y-100122748D01*
X98676214Y-100460543D01*
X98806616Y-100453742D01*
X98937017Y-100446941D01*
X98943142Y-99949296D01*
X98944907Y-99823555D01*
X98947809Y-99686022D01*
X98951688Y-99583759D01*
X98957012Y-99510929D01*
X98964251Y-99461696D01*
X98973873Y-99430225D01*
X98986344Y-99410680D01*
X98999207Y-99398596D01*
X99062853Y-99372462D01*
X99134544Y-99379615D01*
X99196938Y-99419342D01*
X99202810Y-99425874D01*
X99215570Y-99443914D01*
X99225318Y-99468230D01*
X99232458Y-99504403D01*
X99237394Y-99558017D01*
X99240531Y-99634656D01*
X99242271Y-99739903D01*
X99243019Y-99879339D01*
X99243178Y-100058550D01*
X99243146Y-100168504D01*
X99242760Y-100323386D01*
X99241585Y-100441805D01*
X99239192Y-100529368D01*
X99235149Y-100591682D01*
X99229026Y-100634357D01*
X99220391Y-100662998D01*
X99208816Y-100683214D01*
X99193868Y-100700613D01*
X99190491Y-100704198D01*
X99175346Y-100718751D01*
X99157230Y-100730085D01*
X99130844Y-100738604D01*
X99090891Y-100744709D01*
X99032072Y-100748802D01*
X98949089Y-100751286D01*
X98836643Y-100752563D01*
X98689437Y-100753034D01*
X98502171Y-100753101D01*
X98355943Y-100753028D01*
X98198893Y-100752529D01*
X98077927Y-100751250D01*
X97987768Y-100748845D01*
X97923141Y-100744966D01*
X97878770Y-100739264D01*
X97849378Y-100731392D01*
X97829689Y-100721001D01*
X97814428Y-100707744D01*
X97808046Y-100701046D01*
X97795770Y-100683926D01*
X97786379Y-100659815D01*
X97779488Y-100623232D01*
X97774712Y-100568695D01*
X97771667Y-100490725D01*
X97769969Y-100383841D01*
X97769231Y-100242561D01*
X97769071Y-100061405D01*
X97769095Y-99976811D01*
X97769460Y-99813793D01*
X97770571Y-99688251D01*
X97772812Y-99594703D01*
X97776568Y-99527670D01*
X97782223Y-99481671D01*
X97790161Y-99451224D01*
X97800768Y-99430849D01*
X97814428Y-99415066D01*
X97857820Y-99385482D01*
X97916482Y-99369708D01*
X97964508Y-99380755D01*
G36*
X99102748Y-89459185D02*
G01*
X99142989Y-89461503D01*
X99174715Y-89471141D01*
X99198936Y-89492853D01*
X99216661Y-89531393D01*
X99228899Y-89591517D01*
X99236660Y-89677978D01*
X99240954Y-89795531D01*
X99242791Y-89948930D01*
X99243178Y-90142930D01*
X99243178Y-90725881D01*
X99183423Y-90772884D01*
X99169996Y-90782826D01*
X99148759Y-90794567D01*
X99120460Y-90803529D01*
X99079628Y-90810086D01*
X99020793Y-90814612D01*
X98938483Y-90817481D01*
X98827229Y-90819067D01*
X98681559Y-90819744D01*
X98496003Y-90819887D01*
X98363581Y-90819829D01*
X98206247Y-90819363D01*
X98085174Y-90818116D01*
X97994977Y-90815720D01*
X97930273Y-90811809D01*
X97885678Y-90806013D01*
X97855807Y-90797965D01*
X97835277Y-90787299D01*
X97818705Y-90773646D01*
X97809348Y-90764576D01*
X97796317Y-90748043D01*
X97786450Y-90725222D01*
X97779308Y-90690532D01*
X97774450Y-90638390D01*
X97771437Y-90563217D01*
X97769829Y-90459431D01*
X97769187Y-90321449D01*
X97769071Y-90143693D01*
X97769084Y-90104168D01*
X97769619Y-89929340D01*
X97771158Y-89793432D01*
X97773999Y-89691068D01*
X97778442Y-89616875D01*
X97784786Y-89565478D01*
X97793331Y-89531503D01*
X97804375Y-89509576D01*
X97824436Y-89488498D01*
X97886947Y-89461857D01*
X97959045Y-89464233D01*
X98022419Y-89496706D01*
X98026992Y-89501104D01*
X98039584Y-89518557D01*
X98048957Y-89545360D01*
X98055579Y-89587513D01*
X98059917Y-89651018D01*
X98062437Y-89741876D01*
X98063606Y-89866087D01*
X98063892Y-90029652D01*
X98063892Y-90525066D01*
X98381392Y-90525066D01*
X98381392Y-90198739D01*
X98381554Y-90127083D01*
X98383156Y-90015045D01*
X98387183Y-89936420D01*
X98394498Y-89883276D01*
X98405966Y-89847683D01*
X98422450Y-89821708D01*
X98428846Y-89814389D01*
X98491073Y-89777410D01*
X98564070Y-89776136D01*
X98631608Y-89811371D01*
X98631746Y-89811495D01*
X98649076Y-89830923D01*
X98661241Y-89857629D01*
X98669139Y-89899228D01*
X98673668Y-89963336D01*
X98675727Y-90057566D01*
X98676214Y-90189534D01*
X98676214Y-90527329D01*
X98806616Y-90520528D01*
X98937017Y-90513726D01*
X98943151Y-90027410D01*
X98943810Y-89977154D01*
X98946782Y-89813186D01*
X98951572Y-89687991D01*
X98959598Y-89596357D01*
X98972282Y-89533071D01*
X98991043Y-89492922D01*
X99017302Y-89470698D01*
X99052480Y-89461185D01*
X99097996Y-89459173D01*
X99102748Y-89459185D01*
G37*
X99102748Y-89459185D02*
X99142989Y-89461503D01*
X99174715Y-89471141D01*
X99198936Y-89492853D01*
X99216661Y-89531393D01*
X99228899Y-89591517D01*
X99236660Y-89677978D01*
X99240954Y-89795531D01*
X99242791Y-89948930D01*
X99243178Y-90142930D01*
X99243178Y-90725881D01*
X99183423Y-90772884D01*
X99169996Y-90782826D01*
X99148759Y-90794567D01*
X99120460Y-90803529D01*
X99079628Y-90810086D01*
X99020793Y-90814612D01*
X98938483Y-90817481D01*
X98827229Y-90819067D01*
X98681559Y-90819744D01*
X98496003Y-90819887D01*
X98363581Y-90819829D01*
X98206247Y-90819363D01*
X98085174Y-90818116D01*
X97994977Y-90815720D01*
X97930273Y-90811809D01*
X97885678Y-90806013D01*
X97855807Y-90797965D01*
X97835277Y-90787299D01*
X97818705Y-90773646D01*
X97809348Y-90764576D01*
X97796317Y-90748043D01*
X97786450Y-90725222D01*
X97779308Y-90690532D01*
X97774450Y-90638390D01*
X97771437Y-90563217D01*
X97769829Y-90459431D01*
X97769187Y-90321449D01*
X97769071Y-90143693D01*
X97769084Y-90104168D01*
X97769619Y-89929340D01*
X97771158Y-89793432D01*
X97773999Y-89691068D01*
X97778442Y-89616875D01*
X97784786Y-89565478D01*
X97793331Y-89531503D01*
X97804375Y-89509576D01*
X97824436Y-89488498D01*
X97886947Y-89461857D01*
X97959045Y-89464233D01*
X98022419Y-89496706D01*
X98026992Y-89501104D01*
X98039584Y-89518557D01*
X98048957Y-89545360D01*
X98055579Y-89587513D01*
X98059917Y-89651018D01*
X98062437Y-89741876D01*
X98063606Y-89866087D01*
X98063892Y-90029652D01*
X98063892Y-90525066D01*
X98381392Y-90525066D01*
X98381392Y-90198739D01*
X98381554Y-90127083D01*
X98383156Y-90015045D01*
X98387183Y-89936420D01*
X98394498Y-89883276D01*
X98405966Y-89847683D01*
X98422450Y-89821708D01*
X98428846Y-89814389D01*
X98491073Y-89777410D01*
X98564070Y-89776136D01*
X98631608Y-89811371D01*
X98631746Y-89811495D01*
X98649076Y-89830923D01*
X98661241Y-89857629D01*
X98669139Y-89899228D01*
X98673668Y-89963336D01*
X98675727Y-90057566D01*
X98676214Y-90189534D01*
X98676214Y-90527329D01*
X98806616Y-90520528D01*
X98937017Y-90513726D01*
X98943151Y-90027410D01*
X98943810Y-89977154D01*
X98946782Y-89813186D01*
X98951572Y-89687991D01*
X98959598Y-89596357D01*
X98972282Y-89533071D01*
X98991043Y-89492922D01*
X99017302Y-89470698D01*
X99052480Y-89461185D01*
X99097996Y-89459173D01*
X99102748Y-89459185D01*
G36*
X99187513Y-77835374D02*
G01*
X99232197Y-77898411D01*
X99237600Y-77965166D01*
X99197821Y-78029173D01*
X99178193Y-78045818D01*
X99146267Y-78060708D01*
X99098118Y-78069422D01*
X99024043Y-78073512D01*
X98914339Y-78074530D01*
X98676214Y-78074530D01*
X98676214Y-79072387D01*
X98904030Y-79072387D01*
X98908272Y-79072388D01*
X99012128Y-79073267D01*
X99081486Y-79077212D01*
X99126839Y-79086284D01*
X99158684Y-79102544D01*
X99187513Y-79128053D01*
X99232197Y-79191090D01*
X99237600Y-79257844D01*
X99197821Y-79321851D01*
X99185385Y-79333166D01*
X99168901Y-79343393D01*
X99145242Y-79351602D01*
X99110168Y-79357986D01*
X99059435Y-79362740D01*
X98988801Y-79366056D01*
X98894023Y-79368128D01*
X98770859Y-79369149D01*
X98615066Y-79369312D01*
X98422402Y-79368811D01*
X98188625Y-79367839D01*
X98160148Y-79367702D01*
X98036072Y-79366524D01*
X97948316Y-79363868D01*
X97889293Y-79358754D01*
X97851417Y-79350205D01*
X97827101Y-79337245D01*
X97808759Y-79318894D01*
X97773769Y-79251681D01*
X97779598Y-79181472D01*
X97828826Y-79119390D01*
X97855350Y-79101291D01*
X97892586Y-79086322D01*
X97944876Y-79077547D01*
X98022312Y-79073419D01*
X98134987Y-79072387D01*
X98381392Y-79072387D01*
X98381392Y-78074530D01*
X98110536Y-78074530D01*
X98038634Y-78074383D01*
X97945561Y-78072851D01*
X97884219Y-78068479D01*
X97845989Y-78059847D01*
X97822248Y-78045536D01*
X97804375Y-78024127D01*
X97774101Y-77959336D01*
X97779459Y-77888448D01*
X97828826Y-77826712D01*
X97841391Y-77817359D01*
X97862534Y-77805435D01*
X97890517Y-77796332D01*
X97930845Y-77789671D01*
X97989018Y-77785073D01*
X98070539Y-77782156D01*
X98180911Y-77780543D01*
X98325635Y-77779854D01*
X98510214Y-77779708D01*
X99131847Y-77779708D01*
X99187513Y-77835374D01*
G37*
X99187513Y-77835374D02*
X99232197Y-77898411D01*
X99237600Y-77965166D01*
X99197821Y-78029173D01*
X99178193Y-78045818D01*
X99146267Y-78060708D01*
X99098118Y-78069422D01*
X99024043Y-78073512D01*
X98914339Y-78074530D01*
X98676214Y-78074530D01*
X98676214Y-79072387D01*
X98904030Y-79072387D01*
X98908272Y-79072388D01*
X99012128Y-79073267D01*
X99081486Y-79077212D01*
X99126839Y-79086284D01*
X99158684Y-79102544D01*
X99187513Y-79128053D01*
X99232197Y-79191090D01*
X99237600Y-79257844D01*
X99197821Y-79321851D01*
X99185385Y-79333166D01*
X99168901Y-79343393D01*
X99145242Y-79351602D01*
X99110168Y-79357986D01*
X99059435Y-79362740D01*
X98988801Y-79366056D01*
X98894023Y-79368128D01*
X98770859Y-79369149D01*
X98615066Y-79369312D01*
X98422402Y-79368811D01*
X98188625Y-79367839D01*
X98160148Y-79367702D01*
X98036072Y-79366524D01*
X97948316Y-79363868D01*
X97889293Y-79358754D01*
X97851417Y-79350205D01*
X97827101Y-79337245D01*
X97808759Y-79318894D01*
X97773769Y-79251681D01*
X97779598Y-79181472D01*
X97828826Y-79119390D01*
X97855350Y-79101291D01*
X97892586Y-79086322D01*
X97944876Y-79077547D01*
X98022312Y-79073419D01*
X98134987Y-79072387D01*
X98381392Y-79072387D01*
X98381392Y-78074530D01*
X98110536Y-78074530D01*
X98038634Y-78074383D01*
X97945561Y-78072851D01*
X97884219Y-78068479D01*
X97845989Y-78059847D01*
X97822248Y-78045536D01*
X97804375Y-78024127D01*
X97774101Y-77959336D01*
X97779459Y-77888448D01*
X97828826Y-77826712D01*
X97841391Y-77817359D01*
X97862534Y-77805435D01*
X97890517Y-77796332D01*
X97930845Y-77789671D01*
X97989018Y-77785073D01*
X98070539Y-77782156D01*
X98180911Y-77780543D01*
X98325635Y-77779854D01*
X98510214Y-77779708D01*
X99131847Y-77779708D01*
X99187513Y-77835374D01*
G36*
X99141739Y-82765148D02*
G01*
X99183690Y-82794593D01*
X99224474Y-82848035D01*
X99225162Y-82849554D01*
X99239226Y-82888908D01*
X99240290Y-82923974D01*
X99224271Y-82957949D01*
X99187084Y-82994030D01*
X99124643Y-83035415D01*
X99032865Y-83085301D01*
X98907664Y-83146885D01*
X98744955Y-83223364D01*
X98681908Y-83252762D01*
X98554978Y-83312525D01*
X98445278Y-83364948D01*
X98358801Y-83407124D01*
X98301540Y-83436147D01*
X98279488Y-83449110D01*
X98280655Y-83451840D01*
X98308674Y-83471913D01*
X98368014Y-83506649D01*
X98451619Y-83552045D01*
X98552436Y-83604093D01*
X98615694Y-83636181D01*
X98726896Y-83694339D01*
X98805278Y-83739517D01*
X98856460Y-83776111D01*
X98886062Y-83808517D01*
X98899702Y-83841131D01*
X98903000Y-83878349D01*
X98902045Y-83899448D01*
X98893593Y-83931824D01*
X98871769Y-83962589D01*
X98831042Y-83995933D01*
X98765883Y-84036049D01*
X98670759Y-84087128D01*
X98540142Y-84153362D01*
X98501460Y-84172914D01*
X98407706Y-84222048D01*
X98335058Y-84262700D01*
X98290081Y-84291091D01*
X98279339Y-84303444D01*
X98285910Y-84306191D01*
X98327916Y-84325023D01*
X98402123Y-84358896D01*
X98502271Y-84404933D01*
X98622099Y-84460261D01*
X98755348Y-84522006D01*
X98870300Y-84575674D01*
X98994831Y-84635185D01*
X99086719Y-84681533D01*
X99151087Y-84717651D01*
X99193060Y-84746473D01*
X99217764Y-84770934D01*
X99230322Y-84793969D01*
X99236133Y-84812872D01*
X99236431Y-84863307D01*
X99205609Y-84917834D01*
X99203631Y-84920447D01*
X99158157Y-84964812D01*
X99113509Y-84987008D01*
X99112224Y-84987101D01*
X99076742Y-84977978D01*
X99007302Y-84952135D01*
X98910180Y-84912441D01*
X98791654Y-84861767D01*
X98658001Y-84802983D01*
X98515497Y-84738959D01*
X98370419Y-84672566D01*
X98229045Y-84606674D01*
X98097651Y-84544153D01*
X97982515Y-84487874D01*
X97889913Y-84440707D01*
X97826122Y-84405522D01*
X97797419Y-84385189D01*
X97770562Y-84316067D01*
X97783342Y-84232300D01*
X97792778Y-84221523D01*
X97837278Y-84189724D01*
X97911127Y-84145122D01*
X98006988Y-84092052D01*
X98117522Y-84034850D01*
X98437431Y-83874591D01*
X98142938Y-83727563D01*
X98104185Y-83708085D01*
X97999022Y-83653887D01*
X97909043Y-83605615D01*
X97842779Y-83567919D01*
X97808759Y-83545447D01*
X97806261Y-83543145D01*
X97775551Y-83486653D01*
X97772169Y-83416215D01*
X97797419Y-83353856D01*
X97803143Y-83348982D01*
X97844578Y-83324352D01*
X97920015Y-83284702D01*
X98024134Y-83232661D01*
X98151614Y-83170862D01*
X98297136Y-83101934D01*
X98455378Y-83028509D01*
X98544019Y-82987847D01*
X98706195Y-82913973D01*
X98834120Y-82856806D01*
X98932426Y-82814569D01*
X99005743Y-82785485D01*
X99058703Y-82767778D01*
X99095934Y-82759671D01*
X99122070Y-82759386D01*
X99141739Y-82765148D01*
G37*
X99141739Y-82765148D02*
X99183690Y-82794593D01*
X99224474Y-82848035D01*
X99225162Y-82849554D01*
X99239226Y-82888908D01*
X99240290Y-82923974D01*
X99224271Y-82957949D01*
X99187084Y-82994030D01*
X99124643Y-83035415D01*
X99032865Y-83085301D01*
X98907664Y-83146885D01*
X98744955Y-83223364D01*
X98681908Y-83252762D01*
X98554978Y-83312525D01*
X98445278Y-83364948D01*
X98358801Y-83407124D01*
X98301540Y-83436147D01*
X98279488Y-83449110D01*
X98280655Y-83451840D01*
X98308674Y-83471913D01*
X98368014Y-83506649D01*
X98451619Y-83552045D01*
X98552436Y-83604093D01*
X98615694Y-83636181D01*
X98726896Y-83694339D01*
X98805278Y-83739517D01*
X98856460Y-83776111D01*
X98886062Y-83808517D01*
X98899702Y-83841131D01*
X98903000Y-83878349D01*
X98902045Y-83899448D01*
X98893593Y-83931824D01*
X98871769Y-83962589D01*
X98831042Y-83995933D01*
X98765883Y-84036049D01*
X98670759Y-84087128D01*
X98540142Y-84153362D01*
X98501460Y-84172914D01*
X98407706Y-84222048D01*
X98335058Y-84262700D01*
X98290081Y-84291091D01*
X98279339Y-84303444D01*
X98285910Y-84306191D01*
X98327916Y-84325023D01*
X98402123Y-84358896D01*
X98502271Y-84404933D01*
X98622099Y-84460261D01*
X98755348Y-84522006D01*
X98870300Y-84575674D01*
X98994831Y-84635185D01*
X99086719Y-84681533D01*
X99151087Y-84717651D01*
X99193060Y-84746473D01*
X99217764Y-84770934D01*
X99230322Y-84793969D01*
X99236133Y-84812872D01*
X99236431Y-84863307D01*
X99205609Y-84917834D01*
X99203631Y-84920447D01*
X99158157Y-84964812D01*
X99113509Y-84987008D01*
X99112224Y-84987101D01*
X99076742Y-84977978D01*
X99007302Y-84952135D01*
X98910180Y-84912441D01*
X98791654Y-84861767D01*
X98658001Y-84802983D01*
X98515497Y-84738959D01*
X98370419Y-84672566D01*
X98229045Y-84606674D01*
X98097651Y-84544153D01*
X97982515Y-84487874D01*
X97889913Y-84440707D01*
X97826122Y-84405522D01*
X97797419Y-84385189D01*
X97770562Y-84316067D01*
X97783342Y-84232300D01*
X97792778Y-84221523D01*
X97837278Y-84189724D01*
X97911127Y-84145122D01*
X98006988Y-84092052D01*
X98117522Y-84034850D01*
X98437431Y-83874591D01*
X98142938Y-83727563D01*
X98104185Y-83708085D01*
X97999022Y-83653887D01*
X97909043Y-83605615D01*
X97842779Y-83567919D01*
X97808759Y-83545447D01*
X97806261Y-83543145D01*
X97775551Y-83486653D01*
X97772169Y-83416215D01*
X97797419Y-83353856D01*
X97803143Y-83348982D01*
X97844578Y-83324352D01*
X97920015Y-83284702D01*
X98024134Y-83232661D01*
X98151614Y-83170862D01*
X98297136Y-83101934D01*
X98455378Y-83028509D01*
X98544019Y-82987847D01*
X98706195Y-82913973D01*
X98834120Y-82856806D01*
X98932426Y-82814569D01*
X99005743Y-82785485D01*
X99058703Y-82767778D01*
X99095934Y-82759671D01*
X99122070Y-82759386D01*
X99141739Y-82765148D01*
G36*
X103273830Y-87527646D02*
G01*
X103053616Y-87515380D01*
X102848718Y-87488870D01*
X102678036Y-87448868D01*
X102502430Y-87385040D01*
X102213033Y-87237087D01*
X101958418Y-87047972D01*
X101740320Y-86819654D01*
X101560475Y-86554090D01*
X101420618Y-86253239D01*
X101322483Y-85919059D01*
X101300349Y-85782789D01*
X101284967Y-85588061D01*
X101281507Y-85375989D01*
X101289692Y-85164296D01*
X101309243Y-84970702D01*
X101334644Y-84839895D01*
X102645701Y-84839895D01*
X102647985Y-85027580D01*
X102679000Y-85205808D01*
X102743073Y-85354573D01*
X102843091Y-85483282D01*
X102880086Y-85519489D01*
X103006252Y-85613758D01*
X103142241Y-85664763D01*
X103305874Y-85680081D01*
X103392322Y-85675931D01*
X103570284Y-85634892D01*
X103723032Y-85548679D01*
X103852284Y-85415720D01*
X103959759Y-85234447D01*
X104047176Y-85003291D01*
X104070117Y-84910102D01*
X104085825Y-84797286D01*
X104094548Y-84655307D01*
X104097481Y-84471532D01*
X104097479Y-84441679D01*
X104095801Y-84304193D01*
X104091744Y-84186093D01*
X104085841Y-84099123D01*
X104078624Y-84055027D01*
X104076281Y-84049953D01*
X104061568Y-84033547D01*
X104032002Y-84021928D01*
X103979628Y-84014291D01*
X103896495Y-84009833D01*
X103774650Y-84007747D01*
X103606139Y-84007231D01*
X103461602Y-84007993D01*
X103309734Y-84011684D01*
X103199961Y-84018915D01*
X103125137Y-84030212D01*
X103078113Y-84046102D01*
X103044534Y-84066542D01*
X102952999Y-84143518D01*
X102857705Y-84246656D01*
X102772798Y-84359698D01*
X102712425Y-84466387D01*
X102690273Y-84525581D01*
X102660780Y-84661879D01*
X102645701Y-84839895D01*
X101334644Y-84839895D01*
X101339880Y-84812930D01*
X101364001Y-84733650D01*
X101434588Y-84553593D01*
X101524205Y-84370560D01*
X101623134Y-84203436D01*
X101721656Y-84071104D01*
X101723078Y-84069478D01*
X101784563Y-83996962D01*
X101828344Y-83941170D01*
X101845025Y-83914061D01*
X101841043Y-83911097D01*
X101798023Y-83904391D01*
X101717787Y-83899730D01*
X101612875Y-83897984D01*
X101380724Y-83897984D01*
X101380724Y-82873790D01*
X101380729Y-82846526D01*
X101381129Y-82617861D01*
X101382124Y-82407993D01*
X101383641Y-82222893D01*
X101385605Y-82068532D01*
X101387943Y-81950882D01*
X101390579Y-81875913D01*
X101393440Y-81849597D01*
X101395940Y-81850210D01*
X101432846Y-81867427D01*
X101502183Y-81903518D01*
X101591451Y-81952016D01*
X101776746Y-82054435D01*
X103702230Y-82070242D01*
X103982676Y-82072591D01*
X104340347Y-82075878D01*
X104650857Y-82079328D01*
X104918596Y-82083220D01*
X105147958Y-82087832D01*
X105343332Y-82093445D01*
X105509111Y-82100335D01*
X105649685Y-82108782D01*
X105769447Y-82119066D01*
X105872786Y-82131463D01*
X105964095Y-82146254D01*
X106047765Y-82163716D01*
X106128187Y-82184129D01*
X106209753Y-82207772D01*
X106296853Y-82234922D01*
X106569910Y-82341882D01*
X106822272Y-82488359D01*
X107038332Y-82670777D01*
X107219222Y-82890805D01*
X107366072Y-83150113D01*
X107480011Y-83450372D01*
X107562172Y-83793251D01*
X107613683Y-84180421D01*
X107623926Y-84315742D01*
X107631416Y-84543644D01*
X107624671Y-84769531D01*
X107602556Y-85003978D01*
X107563932Y-85257561D01*
X107507663Y-85540855D01*
X107432611Y-85864435D01*
X107414452Y-85939230D01*
X107369766Y-86127060D01*
X107328621Y-86305085D01*
X107293447Y-86462510D01*
X107266675Y-86588539D01*
X107250735Y-86672374D01*
X107218966Y-86865796D01*
X106559899Y-86593869D01*
X106395345Y-86525851D01*
X106234104Y-86458936D01*
X106096439Y-86401523D01*
X105989084Y-86356431D01*
X105918776Y-86326478D01*
X105892251Y-86314482D01*
X105891871Y-86312596D01*
X105903714Y-86277835D01*
X105934063Y-86209482D01*
X105977516Y-86119869D01*
X106062139Y-85933611D01*
X106154665Y-85677308D01*
X106225522Y-85414983D01*
X106272931Y-85156893D01*
X106295111Y-84913299D01*
X106290284Y-84694458D01*
X106256670Y-84510629D01*
X106203334Y-84382329D01*
X106094032Y-84236620D01*
X105945751Y-84124452D01*
X105763051Y-84049036D01*
X105550496Y-84013584D01*
X105354595Y-84001099D01*
X105352811Y-84652821D01*
X105350968Y-84872606D01*
X105344423Y-85115704D01*
X105332070Y-85323376D01*
X105312709Y-85506364D01*
X105285139Y-85675411D01*
X105248158Y-85841259D01*
X105200567Y-86014650D01*
X105109980Y-86274086D01*
X104960802Y-86579236D01*
X104778073Y-86847045D01*
X104564362Y-87074870D01*
X104322240Y-87260070D01*
X104054277Y-87400003D01*
X103763042Y-87492029D01*
X103684605Y-87506441D01*
X103490460Y-87524917D01*
X103305874Y-87527243D01*
X103273830Y-87527646D01*
G37*
X103273830Y-87527646D02*
X103053616Y-87515380D01*
X102848718Y-87488870D01*
X102678036Y-87448868D01*
X102502430Y-87385040D01*
X102213033Y-87237087D01*
X101958418Y-87047972D01*
X101740320Y-86819654D01*
X101560475Y-86554090D01*
X101420618Y-86253239D01*
X101322483Y-85919059D01*
X101300349Y-85782789D01*
X101284967Y-85588061D01*
X101281507Y-85375989D01*
X101289692Y-85164296D01*
X101309243Y-84970702D01*
X101334644Y-84839895D01*
X102645701Y-84839895D01*
X102647985Y-85027580D01*
X102679000Y-85205808D01*
X102743073Y-85354573D01*
X102843091Y-85483282D01*
X102880086Y-85519489D01*
X103006252Y-85613758D01*
X103142241Y-85664763D01*
X103305874Y-85680081D01*
X103392322Y-85675931D01*
X103570284Y-85634892D01*
X103723032Y-85548679D01*
X103852284Y-85415720D01*
X103959759Y-85234447D01*
X104047176Y-85003291D01*
X104070117Y-84910102D01*
X104085825Y-84797286D01*
X104094548Y-84655307D01*
X104097481Y-84471532D01*
X104097479Y-84441679D01*
X104095801Y-84304193D01*
X104091744Y-84186093D01*
X104085841Y-84099123D01*
X104078624Y-84055027D01*
X104076281Y-84049953D01*
X104061568Y-84033547D01*
X104032002Y-84021928D01*
X103979628Y-84014291D01*
X103896495Y-84009833D01*
X103774650Y-84007747D01*
X103606139Y-84007231D01*
X103461602Y-84007993D01*
X103309734Y-84011684D01*
X103199961Y-84018915D01*
X103125137Y-84030212D01*
X103078113Y-84046102D01*
X103044534Y-84066542D01*
X102952999Y-84143518D01*
X102857705Y-84246656D01*
X102772798Y-84359698D01*
X102712425Y-84466387D01*
X102690273Y-84525581D01*
X102660780Y-84661879D01*
X102645701Y-84839895D01*
X101334644Y-84839895D01*
X101339880Y-84812930D01*
X101364001Y-84733650D01*
X101434588Y-84553593D01*
X101524205Y-84370560D01*
X101623134Y-84203436D01*
X101721656Y-84071104D01*
X101723078Y-84069478D01*
X101784563Y-83996962D01*
X101828344Y-83941170D01*
X101845025Y-83914061D01*
X101841043Y-83911097D01*
X101798023Y-83904391D01*
X101717787Y-83899730D01*
X101612875Y-83897984D01*
X101380724Y-83897984D01*
X101380724Y-82873790D01*
X101380729Y-82846526D01*
X101381129Y-82617861D01*
X101382124Y-82407993D01*
X101383641Y-82222893D01*
X101385605Y-82068532D01*
X101387943Y-81950882D01*
X101390579Y-81875913D01*
X101393440Y-81849597D01*
X101395940Y-81850210D01*
X101432846Y-81867427D01*
X101502183Y-81903518D01*
X101591451Y-81952016D01*
X101776746Y-82054435D01*
X103702230Y-82070242D01*
X103982676Y-82072591D01*
X104340347Y-82075878D01*
X104650857Y-82079328D01*
X104918596Y-82083220D01*
X105147958Y-82087832D01*
X105343332Y-82093445D01*
X105509111Y-82100335D01*
X105649685Y-82108782D01*
X105769447Y-82119066D01*
X105872786Y-82131463D01*
X105964095Y-82146254D01*
X106047765Y-82163716D01*
X106128187Y-82184129D01*
X106209753Y-82207772D01*
X106296853Y-82234922D01*
X106569910Y-82341882D01*
X106822272Y-82488359D01*
X107038332Y-82670777D01*
X107219222Y-82890805D01*
X107366072Y-83150113D01*
X107480011Y-83450372D01*
X107562172Y-83793251D01*
X107613683Y-84180421D01*
X107623926Y-84315742D01*
X107631416Y-84543644D01*
X107624671Y-84769531D01*
X107602556Y-85003978D01*
X107563932Y-85257561D01*
X107507663Y-85540855D01*
X107432611Y-85864435D01*
X107414452Y-85939230D01*
X107369766Y-86127060D01*
X107328621Y-86305085D01*
X107293447Y-86462510D01*
X107266675Y-86588539D01*
X107250735Y-86672374D01*
X107218966Y-86865796D01*
X106559899Y-86593869D01*
X106395345Y-86525851D01*
X106234104Y-86458936D01*
X106096439Y-86401523D01*
X105989084Y-86356431D01*
X105918776Y-86326478D01*
X105892251Y-86314482D01*
X105891871Y-86312596D01*
X105903714Y-86277835D01*
X105934063Y-86209482D01*
X105977516Y-86119869D01*
X106062139Y-85933611D01*
X106154665Y-85677308D01*
X106225522Y-85414983D01*
X106272931Y-85156893D01*
X106295111Y-84913299D01*
X106290284Y-84694458D01*
X106256670Y-84510629D01*
X106203334Y-84382329D01*
X106094032Y-84236620D01*
X105945751Y-84124452D01*
X105763051Y-84049036D01*
X105550496Y-84013584D01*
X105354595Y-84001099D01*
X105352811Y-84652821D01*
X105350968Y-84872606D01*
X105344423Y-85115704D01*
X105332070Y-85323376D01*
X105312709Y-85506364D01*
X105285139Y-85675411D01*
X105248158Y-85841259D01*
X105200567Y-86014650D01*
X105109980Y-86274086D01*
X104960802Y-86579236D01*
X104778073Y-86847045D01*
X104564362Y-87074870D01*
X104322240Y-87260070D01*
X104054277Y-87400003D01*
X103763042Y-87492029D01*
X103684605Y-87506441D01*
X103490460Y-87524917D01*
X103305874Y-87527243D01*
X103273830Y-87527646D01*
G36*
X102786398Y-87963660D02*
G01*
X102883029Y-88022507D01*
X103056494Y-88128231D01*
X103211573Y-88222860D01*
X103342609Y-88302936D01*
X103443946Y-88365001D01*
X103509927Y-88405596D01*
X103534896Y-88421263D01*
X103534150Y-88425621D01*
X103509715Y-88460723D01*
X103459003Y-88522392D01*
X103389882Y-88600884D01*
X103270457Y-88740673D01*
X103093858Y-88990227D01*
X102970747Y-89232353D01*
X102909268Y-89407320D01*
X102846437Y-89703264D01*
X102835300Y-89994037D01*
X102875099Y-90275423D01*
X102965074Y-90543205D01*
X103104466Y-90793168D01*
X103292519Y-91021093D01*
X103431026Y-91147919D01*
X103687216Y-91326590D01*
X103984511Y-91473198D01*
X104324434Y-91588442D01*
X104708508Y-91673026D01*
X104732351Y-91676863D01*
X104886892Y-91694592D01*
X105078905Y-91707790D01*
X105295272Y-91716350D01*
X105522872Y-91720166D01*
X105748585Y-91719130D01*
X105959290Y-91713137D01*
X106141868Y-91702079D01*
X106283197Y-91685848D01*
X106603339Y-91623639D01*
X106977307Y-91518964D01*
X107304710Y-91387318D01*
X107585295Y-91228877D01*
X107818809Y-91043817D01*
X108004998Y-90832315D01*
X108143609Y-90594546D01*
X108234389Y-90330686D01*
X108245656Y-90272145D01*
X108260368Y-90125437D01*
X108265170Y-89953986D01*
X108260327Y-89777000D01*
X108246101Y-89613686D01*
X108222757Y-89483253D01*
X108148426Y-89265967D01*
X108012726Y-89013811D01*
X107834147Y-88789287D01*
X107796529Y-88749659D01*
X107729974Y-88677854D01*
X107685177Y-88627105D01*
X107670276Y-88606488D01*
X107677403Y-88601412D01*
X107722404Y-88570168D01*
X107804116Y-88513724D01*
X107917126Y-88435810D01*
X108056024Y-88340154D01*
X108215399Y-88230487D01*
X108389841Y-88110538D01*
X109103580Y-87619919D01*
X109136418Y-87729520D01*
X109140139Y-87740957D01*
X109169695Y-87815406D01*
X109217355Y-87922742D01*
X109277384Y-88050369D01*
X109344051Y-88185692D01*
X109373527Y-88244659D01*
X109525701Y-88572097D01*
X109643377Y-88873893D01*
X109729565Y-89161654D01*
X109787275Y-89446987D01*
X109819517Y-89741500D01*
X109829302Y-90056801D01*
X109824334Y-90276228D01*
X109790641Y-90643245D01*
X109722691Y-90984204D01*
X109617624Y-91311789D01*
X109472580Y-91638680D01*
X109287390Y-91962267D01*
X109034928Y-92309539D01*
X108743034Y-92631578D01*
X108418934Y-92921291D01*
X108069854Y-93171587D01*
X107703019Y-93375376D01*
X107663776Y-93393874D01*
X107284990Y-93548790D01*
X106891389Y-93666504D01*
X106475452Y-93748537D01*
X106029660Y-93796410D01*
X105546495Y-93811644D01*
X105047027Y-93793121D01*
X104555148Y-93734329D01*
X104094694Y-93634355D01*
X103662399Y-93492304D01*
X103254996Y-93307282D01*
X102869219Y-93078394D01*
X102574489Y-92863393D01*
X102242870Y-92566521D01*
X101958828Y-92242945D01*
X101722455Y-91892805D01*
X101533845Y-91516244D01*
X101393089Y-91113402D01*
X101300282Y-90684423D01*
X101299559Y-90679527D01*
X101292310Y-90596916D01*
X101286934Y-90472250D01*
X101283680Y-90317060D01*
X101282800Y-90142870D01*
X101284545Y-89961210D01*
X101287102Y-89833892D01*
X101293024Y-89644990D01*
X101301503Y-89493620D01*
X101313443Y-89368861D01*
X101329748Y-89259798D01*
X101351325Y-89155511D01*
X101379208Y-89038180D01*
X101410961Y-88915767D01*
X101444271Y-88805057D01*
X101483041Y-88696002D01*
X101531172Y-88578554D01*
X101592565Y-88442666D01*
X101671122Y-88278289D01*
X101770745Y-88075376D01*
X102048093Y-87514167D01*
X102786398Y-87963660D01*
G37*
X102786398Y-87963660D02*
X102883029Y-88022507D01*
X103056494Y-88128231D01*
X103211573Y-88222860D01*
X103342609Y-88302936D01*
X103443946Y-88365001D01*
X103509927Y-88405596D01*
X103534896Y-88421263D01*
X103534150Y-88425621D01*
X103509715Y-88460723D01*
X103459003Y-88522392D01*
X103389882Y-88600884D01*
X103270457Y-88740673D01*
X103093858Y-88990227D01*
X102970747Y-89232353D01*
X102909268Y-89407320D01*
X102846437Y-89703264D01*
X102835300Y-89994037D01*
X102875099Y-90275423D01*
X102965074Y-90543205D01*
X103104466Y-90793168D01*
X103292519Y-91021093D01*
X103431026Y-91147919D01*
X103687216Y-91326590D01*
X103984511Y-91473198D01*
X104324434Y-91588442D01*
X104708508Y-91673026D01*
X104732351Y-91676863D01*
X104886892Y-91694592D01*
X105078905Y-91707790D01*
X105295272Y-91716350D01*
X105522872Y-91720166D01*
X105748585Y-91719130D01*
X105959290Y-91713137D01*
X106141868Y-91702079D01*
X106283197Y-91685848D01*
X106603339Y-91623639D01*
X106977307Y-91518964D01*
X107304710Y-91387318D01*
X107585295Y-91228877D01*
X107818809Y-91043817D01*
X108004998Y-90832315D01*
X108143609Y-90594546D01*
X108234389Y-90330686D01*
X108245656Y-90272145D01*
X108260368Y-90125437D01*
X108265170Y-89953986D01*
X108260327Y-89777000D01*
X108246101Y-89613686D01*
X108222757Y-89483253D01*
X108148426Y-89265967D01*
X108012726Y-89013811D01*
X107834147Y-88789287D01*
X107796529Y-88749659D01*
X107729974Y-88677854D01*
X107685177Y-88627105D01*
X107670276Y-88606488D01*
X107677403Y-88601412D01*
X107722404Y-88570168D01*
X107804116Y-88513724D01*
X107917126Y-88435810D01*
X108056024Y-88340154D01*
X108215399Y-88230487D01*
X108389841Y-88110538D01*
X109103580Y-87619919D01*
X109136418Y-87729520D01*
X109140139Y-87740957D01*
X109169695Y-87815406D01*
X109217355Y-87922742D01*
X109277384Y-88050369D01*
X109344051Y-88185692D01*
X109373527Y-88244659D01*
X109525701Y-88572097D01*
X109643377Y-88873893D01*
X109729565Y-89161654D01*
X109787275Y-89446987D01*
X109819517Y-89741500D01*
X109829302Y-90056801D01*
X109824334Y-90276228D01*
X109790641Y-90643245D01*
X109722691Y-90984204D01*
X109617624Y-91311789D01*
X109472580Y-91638680D01*
X109287390Y-91962267D01*
X109034928Y-92309539D01*
X108743034Y-92631578D01*
X108418934Y-92921291D01*
X108069854Y-93171587D01*
X107703019Y-93375376D01*
X107663776Y-93393874D01*
X107284990Y-93548790D01*
X106891389Y-93666504D01*
X106475452Y-93748537D01*
X106029660Y-93796410D01*
X105546495Y-93811644D01*
X105047027Y-93793121D01*
X104555148Y-93734329D01*
X104094694Y-93634355D01*
X103662399Y-93492304D01*
X103254996Y-93307282D01*
X102869219Y-93078394D01*
X102574489Y-92863393D01*
X102242870Y-92566521D01*
X101958828Y-92242945D01*
X101722455Y-91892805D01*
X101533845Y-91516244D01*
X101393089Y-91113402D01*
X101300282Y-90684423D01*
X101299559Y-90679527D01*
X101292310Y-90596916D01*
X101286934Y-90472250D01*
X101283680Y-90317060D01*
X101282800Y-90142870D01*
X101284545Y-89961210D01*
X101287102Y-89833892D01*
X101293024Y-89644990D01*
X101301503Y-89493620D01*
X101313443Y-89368861D01*
X101329748Y-89259798D01*
X101351325Y-89155511D01*
X101379208Y-89038180D01*
X101410961Y-88915767D01*
X101444271Y-88805057D01*
X101483041Y-88696002D01*
X101531172Y-88578554D01*
X101592565Y-88442666D01*
X101671122Y-88278289D01*
X101770745Y-88075376D01*
X102048093Y-87514167D01*
X102786398Y-87963660D01*
G36*
X111233551Y-95208535D02*
G01*
X111404165Y-95264461D01*
X111526143Y-95329080D01*
X111719669Y-95472936D01*
X111872405Y-95643478D01*
X111984337Y-95834435D01*
X112055450Y-96039537D01*
X112085729Y-96252514D01*
X112075160Y-96467093D01*
X112023728Y-96677006D01*
X111931418Y-96875980D01*
X111798214Y-97057745D01*
X111624104Y-97216031D01*
X111409071Y-97344566D01*
X111333320Y-97379026D01*
X111256541Y-97406943D01*
X111179785Y-97422607D01*
X111084846Y-97429473D01*
X110953520Y-97430995D01*
X110844214Y-97430075D01*
X110743759Y-97424532D01*
X110665384Y-97410942D01*
X110591089Y-97385910D01*
X110502875Y-97346045D01*
X110479367Y-97334513D01*
X110264111Y-97198208D01*
X110087004Y-97026774D01*
X109952203Y-96825078D01*
X109863864Y-96597984D01*
X109839212Y-96481460D01*
X109827677Y-96245068D01*
X109865002Y-96016107D01*
X109947361Y-95801291D01*
X110070927Y-95607335D01*
X110231872Y-95440951D01*
X110426370Y-95308855D01*
X110650595Y-95217760D01*
X110834089Y-95184431D01*
X111036583Y-95181428D01*
X111233551Y-95208535D01*
G37*
X111233551Y-95208535D02*
X111404165Y-95264461D01*
X111526143Y-95329080D01*
X111719669Y-95472936D01*
X111872405Y-95643478D01*
X111984337Y-95834435D01*
X112055450Y-96039537D01*
X112085729Y-96252514D01*
X112075160Y-96467093D01*
X112023728Y-96677006D01*
X111931418Y-96875980D01*
X111798214Y-97057745D01*
X111624104Y-97216031D01*
X111409071Y-97344566D01*
X111333320Y-97379026D01*
X111256541Y-97406943D01*
X111179785Y-97422607D01*
X111084846Y-97429473D01*
X110953520Y-97430995D01*
X110844214Y-97430075D01*
X110743759Y-97424532D01*
X110665384Y-97410942D01*
X110591089Y-97385910D01*
X110502875Y-97346045D01*
X110479367Y-97334513D01*
X110264111Y-97198208D01*
X110087004Y-97026774D01*
X109952203Y-96825078D01*
X109863864Y-96597984D01*
X109839212Y-96481460D01*
X109827677Y-96245068D01*
X109865002Y-96016107D01*
X109947361Y-95801291D01*
X110070927Y-95607335D01*
X110231872Y-95440951D01*
X110426370Y-95308855D01*
X110650595Y-95217760D01*
X110834089Y-95184431D01*
X111036583Y-95181428D01*
X111233551Y-95208535D01*
G36*
X104133249Y-81354270D02*
G01*
X103880503Y-81348475D01*
X103657604Y-81331904D01*
X103452427Y-81303275D01*
X103252849Y-81261304D01*
X103046746Y-81204709D01*
X102800390Y-81118887D01*
X102467822Y-80961263D01*
X102169943Y-80767915D01*
X101909568Y-80541801D01*
X101689514Y-80285879D01*
X101512594Y-80003106D01*
X101381625Y-79696440D01*
X101299421Y-79368840D01*
X101298762Y-79364898D01*
X101275725Y-79125482D01*
X101278800Y-78862427D01*
X101306090Y-78594486D01*
X101322499Y-78510451D01*
X102777379Y-78510451D01*
X102778217Y-78605266D01*
X102787687Y-78675846D01*
X102808385Y-78739153D01*
X102842909Y-78812147D01*
X102935388Y-78952427D01*
X103066208Y-79073955D01*
X103234792Y-79171235D01*
X103443784Y-79245190D01*
X103695827Y-79296747D01*
X103993562Y-79326831D01*
X104339632Y-79336368D01*
X104418310Y-79335904D01*
X104782853Y-79322193D01*
X105100055Y-79288900D01*
X105373263Y-79235216D01*
X105605823Y-79160329D01*
X105801083Y-79063431D01*
X105962388Y-78943712D01*
X106011618Y-78894044D01*
X106114181Y-78740116D01*
X106176593Y-78559420D01*
X106198498Y-78359784D01*
X106179543Y-78149035D01*
X106119371Y-77935001D01*
X106017629Y-77725511D01*
X105927588Y-77575296D01*
X103088489Y-77575296D01*
X102998918Y-77711855D01*
X102966651Y-77764370D01*
X102902192Y-77884618D01*
X102850861Y-77998629D01*
X102833481Y-78048559D01*
X102798784Y-78207432D01*
X102781066Y-78408306D01*
X102777379Y-78510451D01*
X101322499Y-78510451D01*
X101355699Y-78340419D01*
X101425733Y-78118980D01*
X101468351Y-78024462D01*
X101533127Y-77901362D01*
X101607214Y-77774868D01*
X101682457Y-77658180D01*
X101750703Y-77564496D01*
X101803796Y-77507016D01*
X101818372Y-77493821D01*
X101823467Y-77478090D01*
X101798172Y-77467576D01*
X101734421Y-77459828D01*
X101624152Y-77452392D01*
X101394380Y-77438737D01*
X101387226Y-76392717D01*
X101380073Y-75346697D01*
X101503574Y-75419074D01*
X101510876Y-75423388D01*
X101545153Y-75444435D01*
X101575690Y-75463528D01*
X101605138Y-75480770D01*
X101636151Y-75496265D01*
X101671382Y-75510114D01*
X101713483Y-75522421D01*
X101765107Y-75533288D01*
X101828908Y-75542818D01*
X101907538Y-75551113D01*
X102003650Y-75558277D01*
X102119896Y-75564413D01*
X102258931Y-75569622D01*
X102423407Y-75574008D01*
X102615976Y-75577673D01*
X102839292Y-75580721D01*
X103096008Y-75583253D01*
X103388775Y-75585373D01*
X103720249Y-75587184D01*
X104093080Y-75588787D01*
X104509923Y-75590287D01*
X104973430Y-75591785D01*
X105486253Y-75593385D01*
X106051047Y-75595188D01*
X110216101Y-75608844D01*
X110223242Y-76694489D01*
X110223723Y-76773439D01*
X110224676Y-77005726D01*
X110224870Y-77218187D01*
X110224343Y-77405024D01*
X110223136Y-77560436D01*
X110221288Y-77678624D01*
X110218839Y-77753790D01*
X110215828Y-77780134D01*
X110206286Y-77776764D01*
X110161049Y-77751622D01*
X110095263Y-77709980D01*
X110088973Y-77705826D01*
X110038179Y-77673539D01*
X109988758Y-77646468D01*
X109935620Y-77624154D01*
X109873674Y-77606138D01*
X109797829Y-77591960D01*
X109702995Y-77581162D01*
X109584082Y-77573284D01*
X109435998Y-77567868D01*
X109253653Y-77564455D01*
X109031957Y-77562585D01*
X108765818Y-77561799D01*
X108450147Y-77561640D01*
X108203687Y-77561926D01*
X107961720Y-77562802D01*
X107742321Y-77564205D01*
X107550832Y-77566072D01*
X107392596Y-77568338D01*
X107272955Y-77570940D01*
X107197253Y-77573814D01*
X107170832Y-77576897D01*
X107174933Y-77586840D01*
X107203810Y-77630549D01*
X107251236Y-77692972D01*
X107315014Y-77783469D01*
X107408987Y-77953498D01*
X107492812Y-78147836D01*
X107557999Y-78348341D01*
X107591239Y-78516801D01*
X107612428Y-78726609D01*
X107619769Y-78953679D01*
X107613253Y-79180488D01*
X107592872Y-79389515D01*
X107558616Y-79563234D01*
X107500912Y-79740119D01*
X107361026Y-80035206D01*
X107175057Y-80308434D01*
X106947287Y-80554763D01*
X106681998Y-80769153D01*
X106383472Y-80946562D01*
X106291931Y-80990606D01*
X105983157Y-81114032D01*
X105648037Y-81210529D01*
X105280666Y-81281315D01*
X104875136Y-81327611D01*
X104425538Y-81350635D01*
X104339632Y-81351704D01*
X104133249Y-81354270D01*
G37*
X104133249Y-81354270D02*
X103880503Y-81348475D01*
X103657604Y-81331904D01*
X103452427Y-81303275D01*
X103252849Y-81261304D01*
X103046746Y-81204709D01*
X102800390Y-81118887D01*
X102467822Y-80961263D01*
X102169943Y-80767915D01*
X101909568Y-80541801D01*
X101689514Y-80285879D01*
X101512594Y-80003106D01*
X101381625Y-79696440D01*
X101299421Y-79368840D01*
X101298762Y-79364898D01*
X101275725Y-79125482D01*
X101278800Y-78862427D01*
X101306090Y-78594486D01*
X101322499Y-78510451D01*
X102777379Y-78510451D01*
X102778217Y-78605266D01*
X102787687Y-78675846D01*
X102808385Y-78739153D01*
X102842909Y-78812147D01*
X102935388Y-78952427D01*
X103066208Y-79073955D01*
X103234792Y-79171235D01*
X103443784Y-79245190D01*
X103695827Y-79296747D01*
X103993562Y-79326831D01*
X104339632Y-79336368D01*
X104418310Y-79335904D01*
X104782853Y-79322193D01*
X105100055Y-79288900D01*
X105373263Y-79235216D01*
X105605823Y-79160329D01*
X105801083Y-79063431D01*
X105962388Y-78943712D01*
X106011618Y-78894044D01*
X106114181Y-78740116D01*
X106176593Y-78559420D01*
X106198498Y-78359784D01*
X106179543Y-78149035D01*
X106119371Y-77935001D01*
X106017629Y-77725511D01*
X105927588Y-77575296D01*
X103088489Y-77575296D01*
X102998918Y-77711855D01*
X102966651Y-77764370D01*
X102902192Y-77884618D01*
X102850861Y-77998629D01*
X102833481Y-78048559D01*
X102798784Y-78207432D01*
X102781066Y-78408306D01*
X102777379Y-78510451D01*
X101322499Y-78510451D01*
X101355699Y-78340419D01*
X101425733Y-78118980D01*
X101468351Y-78024462D01*
X101533127Y-77901362D01*
X101607214Y-77774868D01*
X101682457Y-77658180D01*
X101750703Y-77564496D01*
X101803796Y-77507016D01*
X101818372Y-77493821D01*
X101823467Y-77478090D01*
X101798172Y-77467576D01*
X101734421Y-77459828D01*
X101624152Y-77452392D01*
X101394380Y-77438737D01*
X101387226Y-76392717D01*
X101380073Y-75346697D01*
X101503574Y-75419074D01*
X101510876Y-75423388D01*
X101545153Y-75444435D01*
X101575690Y-75463528D01*
X101605138Y-75480770D01*
X101636151Y-75496265D01*
X101671382Y-75510114D01*
X101713483Y-75522421D01*
X101765107Y-75533288D01*
X101828908Y-75542818D01*
X101907538Y-75551113D01*
X102003650Y-75558277D01*
X102119896Y-75564413D01*
X102258931Y-75569622D01*
X102423407Y-75574008D01*
X102615976Y-75577673D01*
X102839292Y-75580721D01*
X103096008Y-75583253D01*
X103388775Y-75585373D01*
X103720249Y-75587184D01*
X104093080Y-75588787D01*
X104509923Y-75590287D01*
X104973430Y-75591785D01*
X105486253Y-75593385D01*
X106051047Y-75595188D01*
X110216101Y-75608844D01*
X110223242Y-76694489D01*
X110223723Y-76773439D01*
X110224676Y-77005726D01*
X110224870Y-77218187D01*
X110224343Y-77405024D01*
X110223136Y-77560436D01*
X110221288Y-77678624D01*
X110218839Y-77753790D01*
X110215828Y-77780134D01*
X110206286Y-77776764D01*
X110161049Y-77751622D01*
X110095263Y-77709980D01*
X110088973Y-77705826D01*
X110038179Y-77673539D01*
X109988758Y-77646468D01*
X109935620Y-77624154D01*
X109873674Y-77606138D01*
X109797829Y-77591960D01*
X109702995Y-77581162D01*
X109584082Y-77573284D01*
X109435998Y-77567868D01*
X109253653Y-77564455D01*
X109031957Y-77562585D01*
X108765818Y-77561799D01*
X108450147Y-77561640D01*
X108203687Y-77561926D01*
X107961720Y-77562802D01*
X107742321Y-77564205D01*
X107550832Y-77566072D01*
X107392596Y-77568338D01*
X107272955Y-77570940D01*
X107197253Y-77573814D01*
X107170832Y-77576897D01*
X107174933Y-77586840D01*
X107203810Y-77630549D01*
X107251236Y-77692972D01*
X107315014Y-77783469D01*
X107408987Y-77953498D01*
X107492812Y-78147836D01*
X107557999Y-78348341D01*
X107591239Y-78516801D01*
X107612428Y-78726609D01*
X107619769Y-78953679D01*
X107613253Y-79180488D01*
X107592872Y-79389515D01*
X107558616Y-79563234D01*
X107500912Y-79740119D01*
X107361026Y-80035206D01*
X107175057Y-80308434D01*
X106947287Y-80554763D01*
X106681998Y-80769153D01*
X106383472Y-80946562D01*
X106291931Y-80990606D01*
X105983157Y-81114032D01*
X105648037Y-81210529D01*
X105280666Y-81281315D01*
X104875136Y-81327611D01*
X104425538Y-81350635D01*
X104339632Y-81351704D01*
X104133249Y-81354270D01*
G36*
X101114946Y-105847428D02*
G01*
X100932505Y-105843938D01*
X100777159Y-105839698D01*
X100646650Y-105834638D01*
X100538720Y-105828687D01*
X100451109Y-105821773D01*
X100381561Y-105813826D01*
X100327815Y-105804773D01*
X100287615Y-105794545D01*
X100258700Y-105783070D01*
X100238814Y-105770277D01*
X100225697Y-105756095D01*
X100217091Y-105740453D01*
X100210737Y-105723280D01*
X100204378Y-105704505D01*
X100195754Y-105684056D01*
X100191432Y-105672550D01*
X100186713Y-105651445D01*
X100182389Y-105620084D01*
X100178443Y-105576251D01*
X100174858Y-105517727D01*
X100171616Y-105442293D01*
X100168700Y-105347730D01*
X100166093Y-105231820D01*
X100163778Y-105092345D01*
X100161737Y-104927087D01*
X100159953Y-104733826D01*
X100158408Y-104510345D01*
X100157085Y-104254425D01*
X100155967Y-103963847D01*
X100155036Y-103636393D01*
X100154276Y-103269844D01*
X100153668Y-102861983D01*
X100153196Y-102410590D01*
X100152841Y-101913448D01*
X100152588Y-101368337D01*
X100152431Y-100817661D01*
X101407922Y-100817661D01*
X101579020Y-100808790D01*
X101587617Y-100808360D01*
X101656017Y-100806676D01*
X101721552Y-100809868D01*
X101787814Y-100820071D01*
X101858391Y-100839421D01*
X101936874Y-100870052D01*
X102026853Y-100914100D01*
X102131916Y-100973700D01*
X102255654Y-101050988D01*
X102401657Y-101148098D01*
X102573514Y-101267166D01*
X102774816Y-101410328D01*
X103009151Y-101579718D01*
X103280111Y-101777472D01*
X103591284Y-102005726D01*
X104688171Y-102811425D01*
X103416362Y-102818523D01*
X103297728Y-102819152D01*
X102978182Y-102820262D01*
X102706387Y-102819757D01*
X102477199Y-102817045D01*
X102285474Y-102811530D01*
X102126069Y-102802619D01*
X101993841Y-102789718D01*
X101883646Y-102772233D01*
X101790341Y-102749570D01*
X101708782Y-102721134D01*
X101633825Y-102686333D01*
X101560326Y-102644571D01*
X101483144Y-102595254D01*
X101408036Y-102545680D01*
X101408036Y-105122054D01*
X101496800Y-105055504D01*
X101510842Y-105045082D01*
X101639544Y-104961757D01*
X101769647Y-104904317D01*
X101918726Y-104866598D01*
X102104353Y-104842438D01*
X102112445Y-104841775D01*
X102189011Y-104838269D01*
X102316759Y-104835103D01*
X102492767Y-104832292D01*
X102714117Y-104829849D01*
X102977890Y-104827787D01*
X103281167Y-104826122D01*
X103621029Y-104824865D01*
X103994556Y-104824031D01*
X104398830Y-104823634D01*
X104830932Y-104823687D01*
X105287941Y-104824205D01*
X105766940Y-104825201D01*
X106196603Y-104826255D01*
X106664300Y-104827383D01*
X107082751Y-104828494D01*
X107454885Y-104829726D01*
X107783636Y-104831220D01*
X108071935Y-104833115D01*
X108322713Y-104835550D01*
X108538901Y-104838664D01*
X108723433Y-104842597D01*
X108879239Y-104847489D01*
X109009251Y-104853479D01*
X109116400Y-104860706D01*
X109203619Y-104869309D01*
X109273839Y-104879429D01*
X109329991Y-104891204D01*
X109375008Y-104904774D01*
X109411820Y-104920279D01*
X109443361Y-104937857D01*
X109472560Y-104957648D01*
X109502350Y-104979792D01*
X109535663Y-105004428D01*
X109569046Y-105028257D01*
X109635051Y-105074313D01*
X109676692Y-105101901D01*
X109678436Y-105102567D01*
X109686311Y-105092934D01*
X109692881Y-105058941D01*
X109698249Y-104996804D01*
X109702514Y-104902741D01*
X109705777Y-104772969D01*
X109708140Y-104603707D01*
X109709703Y-104391170D01*
X109710566Y-104131578D01*
X109710832Y-103821146D01*
X109710832Y-102519795D01*
X109629322Y-102588380D01*
X109573340Y-102628130D01*
X109441344Y-102694295D01*
X109277177Y-102752277D01*
X109095074Y-102796531D01*
X109077786Y-102799352D01*
X108986650Y-102807744D01*
X108845801Y-102814100D01*
X108654264Y-102818435D01*
X108411064Y-102820767D01*
X108115225Y-102821113D01*
X107765772Y-102819489D01*
X106599099Y-102811425D01*
X107652511Y-101978414D01*
X107682685Y-101954555D01*
X107950109Y-101743311D01*
X108179134Y-101562966D01*
X108373652Y-101410648D01*
X108537559Y-101283489D01*
X108674747Y-101178616D01*
X108789113Y-101093162D01*
X108884548Y-101024254D01*
X108964949Y-100969024D01*
X109034208Y-100924602D01*
X109096220Y-100888116D01*
X109154878Y-100856697D01*
X109214078Y-100827475D01*
X109318868Y-100782521D01*
X109429411Y-100753481D01*
X109548648Y-100745757D01*
X109710832Y-100746533D01*
X109710832Y-97982691D01*
X109624373Y-98102864D01*
X109543114Y-98204498D01*
X109410574Y-98347709D01*
X109244464Y-98510145D01*
X109051114Y-98685656D01*
X108836853Y-98868091D01*
X108779556Y-98915072D01*
X108681284Y-98995059D01*
X108552355Y-99099614D01*
X108397073Y-99225272D01*
X108219740Y-99368570D01*
X108024661Y-99526043D01*
X107816137Y-99694229D01*
X107598473Y-99869662D01*
X107498574Y-99950128D01*
X107375971Y-100048880D01*
X107152935Y-100228419D01*
X106933667Y-100404814D01*
X106722472Y-100574602D01*
X106523651Y-100734319D01*
X106341510Y-100880501D01*
X106180349Y-101009685D01*
X106044474Y-101118406D01*
X105938186Y-101203201D01*
X105865790Y-101260606D01*
X105831588Y-101287157D01*
X105818735Y-101289348D01*
X105794290Y-101282059D01*
X105755831Y-101263170D01*
X105700632Y-101230796D01*
X105625963Y-101183050D01*
X105529098Y-101118048D01*
X105407308Y-101033905D01*
X105257864Y-100928734D01*
X105078040Y-100800650D01*
X104865107Y-100647768D01*
X104616337Y-100468201D01*
X104329002Y-100260065D01*
X104000374Y-100021475D01*
X103738790Y-99831368D01*
X103419897Y-99599433D01*
X103139848Y-99395415D01*
X102895534Y-99216944D01*
X102683848Y-99061645D01*
X102501680Y-98927147D01*
X102345924Y-98811076D01*
X102213471Y-98711060D01*
X102101213Y-98624727D01*
X102006043Y-98549704D01*
X101924851Y-98483618D01*
X101854530Y-98424097D01*
X101791972Y-98368769D01*
X101734069Y-98315259D01*
X101677712Y-98261197D01*
X101619794Y-98204209D01*
X101408036Y-97994198D01*
X101407979Y-99405929D01*
X101407922Y-100817661D01*
X100152431Y-100817661D01*
X100152418Y-100773040D01*
X100152314Y-100125337D01*
X100152294Y-99920082D01*
X100152281Y-99286436D01*
X100152360Y-98704549D01*
X100152549Y-98172228D01*
X100152862Y-97687281D01*
X100153057Y-97498241D01*
X101408036Y-97498241D01*
X101776746Y-97294435D01*
X107129864Y-97294435D01*
X107498574Y-97498241D01*
X107498574Y-95343564D01*
X104664972Y-95335774D01*
X101831369Y-95327984D01*
X101668239Y-95251601D01*
X101587384Y-95211330D01*
X101506387Y-95165729D01*
X101456573Y-95131292D01*
X101456477Y-95131206D01*
X101444903Y-95122846D01*
X101435333Y-95123636D01*
X101427577Y-95138123D01*
X101421445Y-95170855D01*
X101416748Y-95226378D01*
X101413294Y-95309241D01*
X101410894Y-95423991D01*
X101409359Y-95575175D01*
X101408497Y-95767340D01*
X101408120Y-96005034D01*
X101408036Y-96292804D01*
X101408036Y-97498241D01*
X100153057Y-97498241D01*
X100153315Y-97247515D01*
X100153925Y-96850740D01*
X100154707Y-96494761D01*
X100155677Y-96177387D01*
X100156851Y-95896427D01*
X100158245Y-95649686D01*
X100159875Y-95434974D01*
X100161757Y-95250099D01*
X100163907Y-95092867D01*
X100166340Y-94961087D01*
X100169073Y-94852566D01*
X100172121Y-94765113D01*
X100175501Y-94696535D01*
X100179228Y-94644639D01*
X100183318Y-94607234D01*
X100187788Y-94582127D01*
X100192652Y-94567127D01*
X100194817Y-94562354D01*
X100201928Y-94542816D01*
X100207121Y-94524899D01*
X100212658Y-94508530D01*
X100220801Y-94493636D01*
X100233810Y-94480146D01*
X100253948Y-94467986D01*
X100283476Y-94457083D01*
X100324656Y-94447366D01*
X100379750Y-94438761D01*
X100451019Y-94431195D01*
X100540725Y-94424597D01*
X100651130Y-94418893D01*
X100784494Y-94414011D01*
X100943081Y-94409878D01*
X101129151Y-94406422D01*
X101344966Y-94403569D01*
X101592788Y-94401248D01*
X101874879Y-94399386D01*
X102193499Y-94397909D01*
X102550912Y-94396746D01*
X102949377Y-94395824D01*
X103391158Y-94395069D01*
X103878516Y-94394410D01*
X104413712Y-94393774D01*
X104999007Y-94393088D01*
X105636665Y-94392280D01*
X105713861Y-94392175D01*
X106347477Y-94391274D01*
X106928996Y-94390412D01*
X107460680Y-94389653D01*
X107944792Y-94389061D01*
X108383594Y-94388700D01*
X108779348Y-94388633D01*
X109134319Y-94388925D01*
X109450767Y-94389640D01*
X109730957Y-94390840D01*
X109977150Y-94392590D01*
X110191610Y-94394953D01*
X110376598Y-94397995D01*
X110534378Y-94401777D01*
X110667212Y-94406364D01*
X110777364Y-94411820D01*
X110867095Y-94418209D01*
X110938668Y-94425594D01*
X110994347Y-94434039D01*
X111036393Y-94443608D01*
X111067069Y-94454365D01*
X111088639Y-94466374D01*
X111103364Y-94479698D01*
X111113507Y-94494401D01*
X111121332Y-94510548D01*
X111129100Y-94528201D01*
X111139075Y-94547424D01*
X111142254Y-94553049D01*
X111173021Y-94638163D01*
X111185666Y-94731338D01*
X111185662Y-94836371D01*
X110946688Y-94838121D01*
X110919188Y-94838565D01*
X110639651Y-94871949D01*
X110376633Y-94956977D01*
X110132918Y-95092466D01*
X109911293Y-95277236D01*
X109820901Y-95376389D01*
X109671077Y-95597162D01*
X109566597Y-95838046D01*
X109507518Y-96092026D01*
X109493895Y-96352086D01*
X109525784Y-96611210D01*
X109603242Y-96862383D01*
X109726323Y-97098588D01*
X109895084Y-97312811D01*
X109954580Y-97372363D01*
X110174870Y-97548379D01*
X110413935Y-97673277D01*
X110673318Y-97747725D01*
X110954560Y-97772392D01*
X111185671Y-97772392D01*
X111185671Y-101692996D01*
X111185681Y-101937937D01*
X111185753Y-102464139D01*
X111185804Y-102939487D01*
X111185733Y-103366611D01*
X111185434Y-103748138D01*
X111184803Y-104086697D01*
X111183738Y-104384917D01*
X111182133Y-104645426D01*
X111179885Y-104870854D01*
X111176890Y-105063828D01*
X111173044Y-105226977D01*
X111168244Y-105362931D01*
X111162384Y-105474317D01*
X111155362Y-105563764D01*
X111147073Y-105633901D01*
X111137414Y-105687356D01*
X111126280Y-105726758D01*
X111113568Y-105754736D01*
X111099173Y-105773919D01*
X111082993Y-105786934D01*
X111064922Y-105796411D01*
X111044857Y-105804978D01*
X111022694Y-105815263D01*
X111022332Y-105815448D01*
X111007824Y-105820442D01*
X110983530Y-105825023D01*
X110947210Y-105829208D01*
X110896620Y-105833014D01*
X110829519Y-105836460D01*
X110743665Y-105839562D01*
X110636816Y-105842338D01*
X110506730Y-105844806D01*
X110351166Y-105846981D01*
X110167881Y-105848883D01*
X109954633Y-105850529D01*
X109709181Y-105851935D01*
X109429282Y-105853119D01*
X109112695Y-105854099D01*
X108757178Y-105854891D01*
X108360489Y-105855515D01*
X107920385Y-105855985D01*
X107434626Y-105856321D01*
X106900969Y-105856540D01*
X106317172Y-105856658D01*
X105680993Y-105856693D01*
X105556015Y-105856695D01*
X104926466Y-105856755D01*
X104348856Y-105856849D01*
X103820926Y-105856904D01*
X103340417Y-105856849D01*
X102905071Y-105856615D01*
X102512630Y-105856128D01*
X102160835Y-105855318D01*
X101847427Y-105854114D01*
X101570149Y-105852445D01*
X101408036Y-105850976D01*
X101326741Y-105850240D01*
X101114946Y-105847428D01*
G37*
X101114946Y-105847428D02*
X100932505Y-105843938D01*
X100777159Y-105839698D01*
X100646650Y-105834638D01*
X100538720Y-105828687D01*
X100451109Y-105821773D01*
X100381561Y-105813826D01*
X100327815Y-105804773D01*
X100287615Y-105794545D01*
X100258700Y-105783070D01*
X100238814Y-105770277D01*
X100225697Y-105756095D01*
X100217091Y-105740453D01*
X100210737Y-105723280D01*
X100204378Y-105704505D01*
X100195754Y-105684056D01*
X100191432Y-105672550D01*
X100186713Y-105651445D01*
X100182389Y-105620084D01*
X100178443Y-105576251D01*
X100174858Y-105517727D01*
X100171616Y-105442293D01*
X100168700Y-105347730D01*
X100166093Y-105231820D01*
X100163778Y-105092345D01*
X100161737Y-104927087D01*
X100159953Y-104733826D01*
X100158408Y-104510345D01*
X100157085Y-104254425D01*
X100155967Y-103963847D01*
X100155036Y-103636393D01*
X100154276Y-103269844D01*
X100153668Y-102861983D01*
X100153196Y-102410590D01*
X100152841Y-101913448D01*
X100152588Y-101368337D01*
X100152431Y-100817661D01*
X101407922Y-100817661D01*
X101579020Y-100808790D01*
X101587617Y-100808360D01*
X101656017Y-100806676D01*
X101721552Y-100809868D01*
X101787814Y-100820071D01*
X101858391Y-100839421D01*
X101936874Y-100870052D01*
X102026853Y-100914100D01*
X102131916Y-100973700D01*
X102255654Y-101050988D01*
X102401657Y-101148098D01*
X102573514Y-101267166D01*
X102774816Y-101410328D01*
X103009151Y-101579718D01*
X103280111Y-101777472D01*
X103591284Y-102005726D01*
X104688171Y-102811425D01*
X103416362Y-102818523D01*
X103297728Y-102819152D01*
X102978182Y-102820262D01*
X102706387Y-102819757D01*
X102477199Y-102817045D01*
X102285474Y-102811530D01*
X102126069Y-102802619D01*
X101993841Y-102789718D01*
X101883646Y-102772233D01*
X101790341Y-102749570D01*
X101708782Y-102721134D01*
X101633825Y-102686333D01*
X101560326Y-102644571D01*
X101483144Y-102595254D01*
X101408036Y-102545680D01*
X101408036Y-105122054D01*
X101496800Y-105055504D01*
X101510842Y-105045082D01*
X101639544Y-104961757D01*
X101769647Y-104904317D01*
X101918726Y-104866598D01*
X102104353Y-104842438D01*
X102112445Y-104841775D01*
X102189011Y-104838269D01*
X102316759Y-104835103D01*
X102492767Y-104832292D01*
X102714117Y-104829849D01*
X102977890Y-104827787D01*
X103281167Y-104826122D01*
X103621029Y-104824865D01*
X103994556Y-104824031D01*
X104398830Y-104823634D01*
X104830932Y-104823687D01*
X105287941Y-104824205D01*
X105766940Y-104825201D01*
X106196603Y-104826255D01*
X106664300Y-104827383D01*
X107082751Y-104828494D01*
X107454885Y-104829726D01*
X107783636Y-104831220D01*
X108071935Y-104833115D01*
X108322713Y-104835550D01*
X108538901Y-104838664D01*
X108723433Y-104842597D01*
X108879239Y-104847489D01*
X109009251Y-104853479D01*
X109116400Y-104860706D01*
X109203619Y-104869309D01*
X109273839Y-104879429D01*
X109329991Y-104891204D01*
X109375008Y-104904774D01*
X109411820Y-104920279D01*
X109443361Y-104937857D01*
X109472560Y-104957648D01*
X109502350Y-104979792D01*
X109535663Y-105004428D01*
X109569046Y-105028257D01*
X109635051Y-105074313D01*
X109676692Y-105101901D01*
X109678436Y-105102567D01*
X109686311Y-105092934D01*
X109692881Y-105058941D01*
X109698249Y-104996804D01*
X109702514Y-104902741D01*
X109705777Y-104772969D01*
X109708140Y-104603707D01*
X109709703Y-104391170D01*
X109710566Y-104131578D01*
X109710832Y-103821146D01*
X109710832Y-102519795D01*
X109629322Y-102588380D01*
X109573340Y-102628130D01*
X109441344Y-102694295D01*
X109277177Y-102752277D01*
X109095074Y-102796531D01*
X109077786Y-102799352D01*
X108986650Y-102807744D01*
X108845801Y-102814100D01*
X108654264Y-102818435D01*
X108411064Y-102820767D01*
X108115225Y-102821113D01*
X107765772Y-102819489D01*
X106599099Y-102811425D01*
X107652511Y-101978414D01*
X107682685Y-101954555D01*
X107950109Y-101743311D01*
X108179134Y-101562966D01*
X108373652Y-101410648D01*
X108537559Y-101283489D01*
X108674747Y-101178616D01*
X108789113Y-101093162D01*
X108884548Y-101024254D01*
X108964949Y-100969024D01*
X109034208Y-100924602D01*
X109096220Y-100888116D01*
X109154878Y-100856697D01*
X109214078Y-100827475D01*
X109318868Y-100782521D01*
X109429411Y-100753481D01*
X109548648Y-100745757D01*
X109710832Y-100746533D01*
X109710832Y-97982691D01*
X109624373Y-98102864D01*
X109543114Y-98204498D01*
X109410574Y-98347709D01*
X109244464Y-98510145D01*
X109051114Y-98685656D01*
X108836853Y-98868091D01*
X108779556Y-98915072D01*
X108681284Y-98995059D01*
X108552355Y-99099614D01*
X108397073Y-99225272D01*
X108219740Y-99368570D01*
X108024661Y-99526043D01*
X107816137Y-99694229D01*
X107598473Y-99869662D01*
X107498574Y-99950128D01*
X107375971Y-100048880D01*
X107152935Y-100228419D01*
X106933667Y-100404814D01*
X106722472Y-100574602D01*
X106523651Y-100734319D01*
X106341510Y-100880501D01*
X106180349Y-101009685D01*
X106044474Y-101118406D01*
X105938186Y-101203201D01*
X105865790Y-101260606D01*
X105831588Y-101287157D01*
X105818735Y-101289348D01*
X105794290Y-101282059D01*
X105755831Y-101263170D01*
X105700632Y-101230796D01*
X105625963Y-101183050D01*
X105529098Y-101118048D01*
X105407308Y-101033905D01*
X105257864Y-100928734D01*
X105078040Y-100800650D01*
X104865107Y-100647768D01*
X104616337Y-100468201D01*
X104329002Y-100260065D01*
X104000374Y-100021475D01*
X103738790Y-99831368D01*
X103419897Y-99599433D01*
X103139848Y-99395415D01*
X102895534Y-99216944D01*
X102683848Y-99061645D01*
X102501680Y-98927147D01*
X102345924Y-98811076D01*
X102213471Y-98711060D01*
X102101213Y-98624727D01*
X102006043Y-98549704D01*
X101924851Y-98483618D01*
X101854530Y-98424097D01*
X101791972Y-98368769D01*
X101734069Y-98315259D01*
X101677712Y-98261197D01*
X101619794Y-98204209D01*
X101408036Y-97994198D01*
X101407979Y-99405929D01*
X101407922Y-100817661D01*
X100152431Y-100817661D01*
X100152418Y-100773040D01*
X100152314Y-100125337D01*
X100152294Y-99920082D01*
X100152281Y-99286436D01*
X100152360Y-98704549D01*
X100152549Y-98172228D01*
X100152862Y-97687281D01*
X100153057Y-97498241D01*
X101408036Y-97498241D01*
X101776746Y-97294435D01*
X107129864Y-97294435D01*
X107498574Y-97498241D01*
X107498574Y-95343564D01*
X104664972Y-95335774D01*
X101831369Y-95327984D01*
X101668239Y-95251601D01*
X101587384Y-95211330D01*
X101506387Y-95165729D01*
X101456573Y-95131292D01*
X101456477Y-95131206D01*
X101444903Y-95122846D01*
X101435333Y-95123636D01*
X101427577Y-95138123D01*
X101421445Y-95170855D01*
X101416748Y-95226378D01*
X101413294Y-95309241D01*
X101410894Y-95423991D01*
X101409359Y-95575175D01*
X101408497Y-95767340D01*
X101408120Y-96005034D01*
X101408036Y-96292804D01*
X101408036Y-97498241D01*
X100153057Y-97498241D01*
X100153315Y-97247515D01*
X100153925Y-96850740D01*
X100154707Y-96494761D01*
X100155677Y-96177387D01*
X100156851Y-95896427D01*
X100158245Y-95649686D01*
X100159875Y-95434974D01*
X100161757Y-95250099D01*
X100163907Y-95092867D01*
X100166340Y-94961087D01*
X100169073Y-94852566D01*
X100172121Y-94765113D01*
X100175501Y-94696535D01*
X100179228Y-94644639D01*
X100183318Y-94607234D01*
X100187788Y-94582127D01*
X100192652Y-94567127D01*
X100194817Y-94562354D01*
X100201928Y-94542816D01*
X100207121Y-94524899D01*
X100212658Y-94508530D01*
X100220801Y-94493636D01*
X100233810Y-94480146D01*
X100253948Y-94467986D01*
X100283476Y-94457083D01*
X100324656Y-94447366D01*
X100379750Y-94438761D01*
X100451019Y-94431195D01*
X100540725Y-94424597D01*
X100651130Y-94418893D01*
X100784494Y-94414011D01*
X100943081Y-94409878D01*
X101129151Y-94406422D01*
X101344966Y-94403569D01*
X101592788Y-94401248D01*
X101874879Y-94399386D01*
X102193499Y-94397909D01*
X102550912Y-94396746D01*
X102949377Y-94395824D01*
X103391158Y-94395069D01*
X103878516Y-94394410D01*
X104413712Y-94393774D01*
X104999007Y-94393088D01*
X105636665Y-94392280D01*
X105713861Y-94392175D01*
X106347477Y-94391274D01*
X106928996Y-94390412D01*
X107460680Y-94389653D01*
X107944792Y-94389061D01*
X108383594Y-94388700D01*
X108779348Y-94388633D01*
X109134319Y-94388925D01*
X109450767Y-94389640D01*
X109730957Y-94390840D01*
X109977150Y-94392590D01*
X110191610Y-94394953D01*
X110376598Y-94397995D01*
X110534378Y-94401777D01*
X110667212Y-94406364D01*
X110777364Y-94411820D01*
X110867095Y-94418209D01*
X110938668Y-94425594D01*
X110994347Y-94434039D01*
X111036393Y-94443608D01*
X111067069Y-94454365D01*
X111088639Y-94466374D01*
X111103364Y-94479698D01*
X111113507Y-94494401D01*
X111121332Y-94510548D01*
X111129100Y-94528201D01*
X111139075Y-94547424D01*
X111142254Y-94553049D01*
X111173021Y-94638163D01*
X111185666Y-94731338D01*
X111185662Y-94836371D01*
X110946688Y-94838121D01*
X110919188Y-94838565D01*
X110639651Y-94871949D01*
X110376633Y-94956977D01*
X110132918Y-95092466D01*
X109911293Y-95277236D01*
X109820901Y-95376389D01*
X109671077Y-95597162D01*
X109566597Y-95838046D01*
X109507518Y-96092026D01*
X109493895Y-96352086D01*
X109525784Y-96611210D01*
X109603242Y-96862383D01*
X109726323Y-97098588D01*
X109895084Y-97312811D01*
X109954580Y-97372363D01*
X110174870Y-97548379D01*
X110413935Y-97673277D01*
X110673318Y-97747725D01*
X110954560Y-97772392D01*
X111185671Y-97772392D01*
X111185671Y-101692996D01*
X111185681Y-101937937D01*
X111185753Y-102464139D01*
X111185804Y-102939487D01*
X111185733Y-103366611D01*
X111185434Y-103748138D01*
X111184803Y-104086697D01*
X111183738Y-104384917D01*
X111182133Y-104645426D01*
X111179885Y-104870854D01*
X111176890Y-105063828D01*
X111173044Y-105226977D01*
X111168244Y-105362931D01*
X111162384Y-105474317D01*
X111155362Y-105563764D01*
X111147073Y-105633901D01*
X111137414Y-105687356D01*
X111126280Y-105726758D01*
X111113568Y-105754736D01*
X111099173Y-105773919D01*
X111082993Y-105786934D01*
X111064922Y-105796411D01*
X111044857Y-105804978D01*
X111022694Y-105815263D01*
X111022332Y-105815448D01*
X111007824Y-105820442D01*
X110983530Y-105825023D01*
X110947210Y-105829208D01*
X110896620Y-105833014D01*
X110829519Y-105836460D01*
X110743665Y-105839562D01*
X110636816Y-105842338D01*
X110506730Y-105844806D01*
X110351166Y-105846981D01*
X110167881Y-105848883D01*
X109954633Y-105850529D01*
X109709181Y-105851935D01*
X109429282Y-105853119D01*
X109112695Y-105854099D01*
X108757178Y-105854891D01*
X108360489Y-105855515D01*
X107920385Y-105855985D01*
X107434626Y-105856321D01*
X106900969Y-105856540D01*
X106317172Y-105856658D01*
X105680993Y-105856693D01*
X105556015Y-105856695D01*
X104926466Y-105856755D01*
X104348856Y-105856849D01*
X103820926Y-105856904D01*
X103340417Y-105856849D01*
X102905071Y-105856615D01*
X102512630Y-105856128D01*
X102160835Y-105855318D01*
X101847427Y-105854114D01*
X101570149Y-105852445D01*
X101408036Y-105850976D01*
X101326741Y-105850240D01*
X101114946Y-105847428D01*
G36*
X98361717Y-93883222D02*
G01*
X98456905Y-93892703D01*
X98521398Y-93916187D01*
X98560678Y-93959920D01*
X98580225Y-94030150D01*
X98585523Y-94133124D01*
X98582051Y-94275088D01*
X98576000Y-94372763D01*
X98559542Y-94473603D01*
X98531310Y-94538881D01*
X98488649Y-94573954D01*
X98428904Y-94584183D01*
X98419781Y-94583969D01*
X98349882Y-94566487D01*
X98302839Y-94518254D01*
X98276321Y-94435355D01*
X98268000Y-94313878D01*
X98268000Y-94176316D01*
X98190953Y-94176316D01*
X98172601Y-94176417D01*
X98137945Y-94180878D01*
X98117265Y-94199495D01*
X98103328Y-94242447D01*
X98088899Y-94319914D01*
X98087023Y-94330911D01*
X98067128Y-94525678D01*
X98072992Y-94706464D01*
X98102584Y-94869002D01*
X98153873Y-95009022D01*
X98224829Y-95122255D01*
X98313421Y-95204432D01*
X98417618Y-95251284D01*
X98535389Y-95258541D01*
X98593437Y-95247454D01*
X98705715Y-95193849D01*
X98797442Y-95101059D01*
X98867425Y-94970516D01*
X98914471Y-94803651D01*
X98923408Y-94754082D01*
X98944501Y-94574627D01*
X98942031Y-94414299D01*
X98916045Y-94257417D01*
X98902406Y-94186816D01*
X98900361Y-94095535D01*
X98925536Y-94032626D01*
X98979349Y-93992139D01*
X99036096Y-93979314D01*
X99098823Y-93998372D01*
X99125793Y-94017113D01*
X99173066Y-94085887D01*
X99208969Y-94191601D01*
X99232065Y-94329246D01*
X99240917Y-94493816D01*
X99232908Y-94688983D01*
X99200132Y-94901942D01*
X99143779Y-95090405D01*
X99065619Y-95248699D01*
X98967419Y-95371152D01*
X98901402Y-95423525D01*
X98802565Y-95482804D01*
X98694368Y-95533573D01*
X98591577Y-95569029D01*
X98508960Y-95582369D01*
X98469354Y-95579236D01*
X98366231Y-95553237D01*
X98252673Y-95506704D01*
X98144358Y-95446654D01*
X98056962Y-95380101D01*
X98036173Y-95359617D01*
X97932161Y-95224847D01*
X97852020Y-95063881D01*
X97802999Y-94890691D01*
X97786702Y-94780271D01*
X97773434Y-94592531D01*
X97777627Y-94412169D01*
X97798209Y-94246453D01*
X97834109Y-94102648D01*
X97884255Y-93988023D01*
X97947578Y-93909842D01*
X97951547Y-93907079D01*
X98002224Y-93892840D01*
X98097148Y-93884325D01*
X98236696Y-93881494D01*
X98361717Y-93883222D01*
G37*
X98361717Y-93883222D02*
X98456905Y-93892703D01*
X98521398Y-93916187D01*
X98560678Y-93959920D01*
X98580225Y-94030150D01*
X98585523Y-94133124D01*
X98582051Y-94275088D01*
X98576000Y-94372763D01*
X98559542Y-94473603D01*
X98531310Y-94538881D01*
X98488649Y-94573954D01*
X98428904Y-94584183D01*
X98419781Y-94583969D01*
X98349882Y-94566487D01*
X98302839Y-94518254D01*
X98276321Y-94435355D01*
X98268000Y-94313878D01*
X98268000Y-94176316D01*
X98190953Y-94176316D01*
X98172601Y-94176417D01*
X98137945Y-94180878D01*
X98117265Y-94199495D01*
X98103328Y-94242447D01*
X98088899Y-94319914D01*
X98087023Y-94330911D01*
X98067128Y-94525678D01*
X98072992Y-94706464D01*
X98102584Y-94869002D01*
X98153873Y-95009022D01*
X98224829Y-95122255D01*
X98313421Y-95204432D01*
X98417618Y-95251284D01*
X98535389Y-95258541D01*
X98593437Y-95247454D01*
X98705715Y-95193849D01*
X98797442Y-95101059D01*
X98867425Y-94970516D01*
X98914471Y-94803651D01*
X98923408Y-94754082D01*
X98944501Y-94574627D01*
X98942031Y-94414299D01*
X98916045Y-94257417D01*
X98902406Y-94186816D01*
X98900361Y-94095535D01*
X98925536Y-94032626D01*
X98979349Y-93992139D01*
X99036096Y-93979314D01*
X99098823Y-93998372D01*
X99125793Y-94017113D01*
X99173066Y-94085887D01*
X99208969Y-94191601D01*
X99232065Y-94329246D01*
X99240917Y-94493816D01*
X99232908Y-94688983D01*
X99200132Y-94901942D01*
X99143779Y-95090405D01*
X99065619Y-95248699D01*
X98967419Y-95371152D01*
X98901402Y-95423525D01*
X98802565Y-95482804D01*
X98694368Y-95533573D01*
X98591577Y-95569029D01*
X98508960Y-95582369D01*
X98469354Y-95579236D01*
X98366231Y-95553237D01*
X98252673Y-95506704D01*
X98144358Y-95446654D01*
X98056962Y-95380101D01*
X98036173Y-95359617D01*
X97932161Y-95224847D01*
X97852020Y-95063881D01*
X97802999Y-94890691D01*
X97786702Y-94780271D01*
X97773434Y-94592531D01*
X97777627Y-94412169D01*
X97798209Y-94246453D01*
X97834109Y-94102648D01*
X97884255Y-93988023D01*
X97947578Y-93909842D01*
X97951547Y-93907079D01*
X98002224Y-93892840D01*
X98097148Y-93884325D01*
X98236696Y-93881494D01*
X98361717Y-93883222D01*
G36*
X98870803Y-103021350D02*
G01*
X98708854Y-103021458D01*
X98506125Y-103020958D01*
X98354127Y-103020879D01*
X98197612Y-103020367D01*
X98077057Y-103019073D01*
X97987202Y-103016654D01*
X97922791Y-103012764D01*
X97878566Y-103007058D01*
X97849269Y-102999193D01*
X97829642Y-102988822D01*
X97814428Y-102975601D01*
X97801905Y-102961605D01*
X97787239Y-102935493D01*
X97777690Y-102897026D01*
X97772190Y-102837955D01*
X97769673Y-102750033D01*
X97769558Y-102726137D01*
X98063892Y-102726137D01*
X98948357Y-102726137D01*
X98948386Y-102573057D01*
X98948367Y-102566974D01*
X98944421Y-102464278D01*
X98934928Y-102343536D01*
X98921813Y-102229612D01*
X98903138Y-102129250D01*
X98850367Y-101979079D01*
X98771418Y-101863547D01*
X98664875Y-101780175D01*
X98561885Y-101737551D01*
X98465805Y-101734703D01*
X98363480Y-101771430D01*
X98271236Y-101831036D01*
X98186038Y-101924847D01*
X98126167Y-102048173D01*
X98087725Y-102207173D01*
X98087246Y-102210166D01*
X98075611Y-102308545D01*
X98067293Y-102426457D01*
X98064064Y-102539039D01*
X98063892Y-102726137D01*
X97769558Y-102726137D01*
X97769071Y-102625010D01*
X97769825Y-102526680D01*
X97778722Y-102312007D01*
X97798987Y-102132755D01*
X97832311Y-101982491D01*
X97880385Y-101854781D01*
X97944900Y-101743192D01*
X98027544Y-101641290D01*
X98039302Y-101629260D01*
X98136752Y-101555197D01*
X98258912Y-101492720D01*
X98387972Y-101449563D01*
X98506125Y-101433458D01*
X98548747Y-101436028D01*
X98664091Y-101460762D01*
X98784448Y-101506021D01*
X98893029Y-101564742D01*
X98973046Y-101629864D01*
X99007244Y-101669122D01*
X99085969Y-101779034D01*
X99146497Y-101900179D01*
X99190614Y-102039189D01*
X99220109Y-102202699D01*
X99236766Y-102397342D01*
X99242374Y-102629753D01*
X99243180Y-102709070D01*
X99244010Y-102800900D01*
X99240385Y-102872821D01*
X99227765Y-102927244D01*
X99201608Y-102966583D01*
X99157374Y-102993251D01*
X99090523Y-103009659D01*
X98996512Y-103018222D01*
X98948357Y-103019421D01*
X98870803Y-103021350D01*
G37*
X98870803Y-103021350D02*
X98708854Y-103021458D01*
X98506125Y-103020958D01*
X98354127Y-103020879D01*
X98197612Y-103020367D01*
X98077057Y-103019073D01*
X97987202Y-103016654D01*
X97922791Y-103012764D01*
X97878566Y-103007058D01*
X97849269Y-102999193D01*
X97829642Y-102988822D01*
X97814428Y-102975601D01*
X97801905Y-102961605D01*
X97787239Y-102935493D01*
X97777690Y-102897026D01*
X97772190Y-102837955D01*
X97769673Y-102750033D01*
X97769558Y-102726137D01*
X98063892Y-102726137D01*
X98948357Y-102726137D01*
X98948386Y-102573057D01*
X98948367Y-102566974D01*
X98944421Y-102464278D01*
X98934928Y-102343536D01*
X98921813Y-102229612D01*
X98903138Y-102129250D01*
X98850367Y-101979079D01*
X98771418Y-101863547D01*
X98664875Y-101780175D01*
X98561885Y-101737551D01*
X98465805Y-101734703D01*
X98363480Y-101771430D01*
X98271236Y-101831036D01*
X98186038Y-101924847D01*
X98126167Y-102048173D01*
X98087725Y-102207173D01*
X98087246Y-102210166D01*
X98075611Y-102308545D01*
X98067293Y-102426457D01*
X98064064Y-102539039D01*
X98063892Y-102726137D01*
X97769558Y-102726137D01*
X97769071Y-102625010D01*
X97769825Y-102526680D01*
X97778722Y-102312007D01*
X97798987Y-102132755D01*
X97832311Y-101982491D01*
X97880385Y-101854781D01*
X97944900Y-101743192D01*
X98027544Y-101641290D01*
X98039302Y-101629260D01*
X98136752Y-101555197D01*
X98258912Y-101492720D01*
X98387972Y-101449563D01*
X98506125Y-101433458D01*
X98548747Y-101436028D01*
X98664091Y-101460762D01*
X98784448Y-101506021D01*
X98893029Y-101564742D01*
X98973046Y-101629864D01*
X99007244Y-101669122D01*
X99085969Y-101779034D01*
X99146497Y-101900179D01*
X99190614Y-102039189D01*
X99220109Y-102202699D01*
X99236766Y-102397342D01*
X99242374Y-102629753D01*
X99243180Y-102709070D01*
X99244010Y-102800900D01*
X99240385Y-102872821D01*
X99227765Y-102927244D01*
X99201608Y-102966583D01*
X99157374Y-102993251D01*
X99090523Y-103009659D01*
X98996512Y-103018222D01*
X98948357Y-103019421D01*
X98870803Y-103021350D01*
G36*
X99199825Y-81949408D02*
G01*
X99229497Y-81997046D01*
X99243178Y-82043280D01*
X99231361Y-82085478D01*
X99199825Y-82137151D01*
X99156471Y-82190691D01*
X97855778Y-82190691D01*
X97812424Y-82137151D01*
X97777319Y-82074150D01*
X97775640Y-82002230D01*
X97816809Y-81939072D01*
X97826181Y-81931285D01*
X97845201Y-81920304D01*
X97872686Y-81911852D01*
X97913908Y-81905601D01*
X97974135Y-81901222D01*
X98058639Y-81898388D01*
X98172690Y-81896770D01*
X98321556Y-81896040D01*
X98510509Y-81895869D01*
X99156471Y-81895869D01*
X99199825Y-81949408D01*
G37*
X99199825Y-81949408D02*
X99229497Y-81997046D01*
X99243178Y-82043280D01*
X99231361Y-82085478D01*
X99199825Y-82137151D01*
X99156471Y-82190691D01*
X97855778Y-82190691D01*
X97812424Y-82137151D01*
X97777319Y-82074150D01*
X97775640Y-82002230D01*
X97816809Y-81939072D01*
X97826181Y-81931285D01*
X97845201Y-81920304D01*
X97872686Y-81911852D01*
X97913908Y-81905601D01*
X97974135Y-81901222D01*
X98058639Y-81898388D01*
X98172690Y-81896770D01*
X98321556Y-81896040D01*
X98510509Y-81895869D01*
X99156471Y-81895869D01*
X99199825Y-81949408D01*
G36*
X99138129Y-79841782D02*
G01*
X99203491Y-79893299D01*
X99210959Y-79903225D01*
X99220674Y-79923736D01*
X99228234Y-79954725D01*
X99233904Y-80001174D01*
X99237949Y-80068067D01*
X99240634Y-80160385D01*
X99242224Y-80283112D01*
X99242984Y-80441230D01*
X99243178Y-80639721D01*
X99243175Y-80679955D01*
X99242995Y-80869041D01*
X99242312Y-81018735D01*
X99240822Y-81134061D01*
X99238220Y-81220043D01*
X99234199Y-81281703D01*
X99228454Y-81324065D01*
X99220679Y-81352153D01*
X99210570Y-81370991D01*
X99197821Y-81385601D01*
X99132094Y-81423381D01*
X99056604Y-81426287D01*
X98989830Y-81393426D01*
X98986910Y-81390693D01*
X98970115Y-81368187D01*
X98958955Y-81333830D01*
X98952338Y-81279248D01*
X98949170Y-81196071D01*
X98948357Y-81075926D01*
X98948357Y-80795958D01*
X98418469Y-80795958D01*
X98266136Y-80795807D01*
X98132208Y-80794987D01*
X98032196Y-80793014D01*
X97960041Y-80789406D01*
X97909685Y-80783679D01*
X97875069Y-80775350D01*
X97850136Y-80763936D01*
X97828826Y-80748955D01*
X97823189Y-80744353D01*
X97777702Y-80681719D01*
X97774560Y-80612654D01*
X97814428Y-80546494D01*
X97830652Y-80532475D01*
X97851943Y-80521482D01*
X97883771Y-80513406D01*
X97931938Y-80507799D01*
X98002249Y-80504215D01*
X98100505Y-80502207D01*
X98232512Y-80501330D01*
X98404071Y-80501137D01*
X98948357Y-80501137D01*
X98948357Y-80207962D01*
X98948359Y-80185663D01*
X98948811Y-80072123D01*
X98951099Y-79994087D01*
X98956724Y-79943076D01*
X98967184Y-79910608D01*
X98983982Y-79888205D01*
X99008617Y-79867386D01*
X99070266Y-79835550D01*
X99138129Y-79841782D01*
G37*
X99138129Y-79841782D02*
X99203491Y-79893299D01*
X99210959Y-79903225D01*
X99220674Y-79923736D01*
X99228234Y-79954725D01*
X99233904Y-80001174D01*
X99237949Y-80068067D01*
X99240634Y-80160385D01*
X99242224Y-80283112D01*
X99242984Y-80441230D01*
X99243178Y-80639721D01*
X99243175Y-80679955D01*
X99242995Y-80869041D01*
X99242312Y-81018735D01*
X99240822Y-81134061D01*
X99238220Y-81220043D01*
X99234199Y-81281703D01*
X99228454Y-81324065D01*
X99220679Y-81352153D01*
X99210570Y-81370991D01*
X99197821Y-81385601D01*
X99132094Y-81423381D01*
X99056604Y-81426287D01*
X98989830Y-81393426D01*
X98986910Y-81390693D01*
X98970115Y-81368187D01*
X98958955Y-81333830D01*
X98952338Y-81279248D01*
X98949170Y-81196071D01*
X98948357Y-81075926D01*
X98948357Y-80795958D01*
X98418469Y-80795958D01*
X98266136Y-80795807D01*
X98132208Y-80794987D01*
X98032196Y-80793014D01*
X97960041Y-80789406D01*
X97909685Y-80783679D01*
X97875069Y-80775350D01*
X97850136Y-80763936D01*
X97828826Y-80748955D01*
X97823189Y-80744353D01*
X97777702Y-80681719D01*
X97774560Y-80612654D01*
X97814428Y-80546494D01*
X97830652Y-80532475D01*
X97851943Y-80521482D01*
X97883771Y-80513406D01*
X97931938Y-80507799D01*
X98002249Y-80504215D01*
X98100505Y-80502207D01*
X98232512Y-80501330D01*
X98404071Y-80501137D01*
X98948357Y-80501137D01*
X98948357Y-80207962D01*
X98948359Y-80185663D01*
X98948811Y-80072123D01*
X98951099Y-79994087D01*
X98956724Y-79943076D01*
X98967184Y-79910608D01*
X98983982Y-79888205D01*
X99008617Y-79867386D01*
X99070266Y-79835550D01*
X99138129Y-79841782D01*
D12*
%TO.C,R1*%
X158751500Y-101194776D02*
X158751500Y-101704224D01*
X157706500Y-101194776D02*
X157706500Y-101704224D01*
%TO.C,R2*%
X156338500Y-101194776D02*
X156338500Y-101704224D01*
X155293500Y-101194776D02*
X155293500Y-101704224D01*
%TD*%
M02*
