M48
; DRILL file {KiCad (6.0.8)} date 2022年10月25日 18時18分43秒
; FORMAT={-:-/ absolute / inch / decimal}
; #@! TF.CreationDate,2022-10-25T18:18:43+09:00
; #@! TF.GenerationSoftware,Kicad,Pcbnew,(6.0.8)
; #@! TF.FileFunction,NonPlated,1,2,NPTH
FMAT,2
INCH
; #@! TA.AperFunction,NonPlated,NPTH,ComponentDrill
T1C0.0472
%
G90
G05
T1
X4.7081Y-2.4267
X4.7081Y-2.5252
X4.9049Y-2.722
X5.1018Y-2.4267
X5.1018Y-2.5252
X5.5871Y-2.4267
X5.5871Y-2.5252
X5.7839Y-2.722
X5.9808Y-2.4267
X5.9808Y-2.5252
X6.4721Y-2.4267
X6.4721Y-2.5252
X6.6689Y-2.722
X6.8658Y-2.4267
X6.8658Y-2.5252
X7.3511Y-2.4267
X7.3511Y-2.5252
X7.5479Y-2.722
X7.7448Y-2.4267
X7.7448Y-2.5252
T0
M30
