%TF.GenerationSoftware,KiCad,Pcbnew,(6.0.8)*%
%TF.CreationDate,2022-10-25T18:18:37+09:00*%
%TF.ProjectId,amp-input,616d702d-696e-4707-9574-2e6b69636164,rev?*%
%TF.SameCoordinates,Original*%
%TF.FileFunction,Soldermask,Bot*%
%TF.FilePolarity,Negative*%
%FSLAX46Y46*%
G04 Gerber Fmt 4.6, Leading zero omitted, Abs format (unit mm)*
G04 Created by KiCad (PCBNEW (6.0.8)) date 2022-10-25 18:18:37*
%MOMM*%
%LPD*%
G01*
G04 APERTURE LIST*
G04 Aperture macros list*
%AMRoundRect*
0 Rectangle with rounded corners*
0 $1 Rounding radius*
0 $2 $3 $4 $5 $6 $7 $8 $9 X,Y pos of 4 corners*
0 Add a 4 corners polygon primitive as box body*
4,1,4,$2,$3,$4,$5,$6,$7,$8,$9,$2,$3,0*
0 Add four circle primitives for the rounded corners*
1,1,$1+$1,$2,$3*
1,1,$1+$1,$4,$5*
1,1,$1+$1,$6,$7*
1,1,$1+$1,$8,$9*
0 Add four rect primitives between the rounded corners*
20,1,$1+$1,$2,$3,$4,$5,0*
20,1,$1+$1,$4,$5,$6,$7,0*
20,1,$1+$1,$6,$7,$8,$9,0*
20,1,$1+$1,$8,$9,$2,$3,0*%
G04 Aperture macros list end*
%ADD10RoundRect,0.250001X1.099999X-1.099999X1.099999X1.099999X-1.099999X1.099999X-1.099999X-1.099999X0*%
%ADD11C,2.700000*%
%ADD12RoundRect,0.250001X-1.099999X1.099999X-1.099999X-1.099999X1.099999X-1.099999X1.099999X1.099999X0*%
%ADD13C,3.600000*%
%ADD14C,5.600000*%
%ADD15C,0.900000*%
%ADD16C,10.600000*%
%ADD17O,1.200000X2.200000*%
%ADD18O,2.200000X1.200000*%
%ADD19RoundRect,0.250000X0.600000X0.725000X-0.600000X0.725000X-0.600000X-0.725000X0.600000X-0.725000X0*%
%ADD20O,1.700000X1.950000*%
%ADD21O,1.500000X3.200000*%
%ADD22O,3.200000X2.000000*%
%ADD23RoundRect,0.237500X-0.237500X0.250000X-0.237500X-0.250000X0.237500X-0.250000X0.237500X0.250000X0*%
G04 APERTURE END LIST*
D10*
%TO.C,J9*%
X171066000Y-103388000D03*
D11*
X171066000Y-99428000D03*
X171066000Y-95468000D03*
X171066000Y-91508000D03*
X171066000Y-87548000D03*
X171066000Y-83588000D03*
%TD*%
D12*
%TO.C,J5*%
X158398000Y-84295500D03*
D11*
X158398000Y-88255500D03*
%TD*%
D13*
%TO.C,H4*%
X206756000Y-112977000D03*
D14*
X206756000Y-112977000D03*
%TD*%
D13*
%TO.C,H3*%
X98704400Y-65227200D03*
D14*
X98704400Y-65227200D03*
%TD*%
%TO.C,H2*%
X206756000Y-65225000D03*
D13*
X206756000Y-65225000D03*
%TD*%
D15*
%TO.C,H1*%
X158102000Y-79360000D03*
X162077000Y-75385000D03*
X154127000Y-75385000D03*
D16*
X158102000Y-75385000D03*
D15*
X155291251Y-72574251D03*
X160912749Y-72574251D03*
X158102000Y-71410000D03*
X155291251Y-78195749D03*
X160912749Y-78195749D03*
%TD*%
D17*
%TO.C,J3*%
X151911200Y-69139200D03*
X149411200Y-69139200D03*
D18*
X146911200Y-64139200D03*
D17*
X141911200Y-69139200D03*
X144411200Y-69139200D03*
%TD*%
D10*
%TO.C,J13*%
X122034000Y-99353000D03*
D11*
X122034000Y-95393000D03*
X122034000Y-91433000D03*
X122034000Y-87473000D03*
X122034000Y-83513000D03*
X122034000Y-79553000D03*
%TD*%
D17*
%TO.C,J1*%
X196716800Y-69139200D03*
X194216800Y-69139200D03*
D18*
X191716800Y-64139200D03*
D17*
X186716800Y-69139200D03*
X189216800Y-69139200D03*
%TD*%
%TO.C,J2*%
X174390200Y-69139200D03*
X171890200Y-69139200D03*
D18*
X169390200Y-64139200D03*
D17*
X164390200Y-69139200D03*
X166890200Y-69139200D03*
%TD*%
D10*
%TO.C,J12*%
X135708000Y-103350500D03*
D11*
X135708000Y-99390500D03*
X135708000Y-95430500D03*
X135708000Y-91470500D03*
X135708000Y-87510500D03*
X135708000Y-83550500D03*
%TD*%
D13*
%TO.C,H5*%
X98704400Y-112979200D03*
D14*
X98704400Y-112979200D03*
%TD*%
D19*
%TO.C,J6*%
X158416000Y-111760000D03*
D20*
X155916000Y-111760000D03*
X153416000Y-111760000D03*
X150916000Y-111760000D03*
%TD*%
D10*
%TO.C,J11*%
X145360000Y-103350500D03*
D11*
X145360000Y-99390500D03*
X145360000Y-95430500D03*
X145360000Y-91470500D03*
X145360000Y-87510500D03*
X145360000Y-83550500D03*
%TD*%
D10*
%TO.C,J10*%
X180878000Y-103388000D03*
D11*
X180878000Y-99428000D03*
X180878000Y-95468000D03*
X180878000Y-91508000D03*
X180878000Y-87548000D03*
X180878000Y-83588000D03*
%TD*%
D17*
%TO.C,J4*%
X129584600Y-69139200D03*
X127084600Y-69139200D03*
D18*
X124584600Y-64139200D03*
D17*
X119584600Y-69139200D03*
X122084600Y-69139200D03*
%TD*%
D10*
%TO.C,J8*%
X200732000Y-99286500D03*
D11*
X200732000Y-95326500D03*
X200732000Y-91366500D03*
X200732000Y-87406500D03*
X200732000Y-83446500D03*
X200732000Y-79486500D03*
%TD*%
D21*
%TO.C,J14*%
X108864400Y-68139200D03*
D22*
X108864400Y-63639200D03*
%TD*%
D10*
%TO.C,J7*%
X191080000Y-99286500D03*
D11*
X191080000Y-95326500D03*
X191080000Y-91366500D03*
X191080000Y-87406500D03*
X191080000Y-83446500D03*
X191080000Y-79486500D03*
%TD*%
D23*
%TO.C,R1*%
X158229000Y-100537000D03*
X158229000Y-102362000D03*
%TD*%
%TO.C,R2*%
X155816000Y-100537000D03*
X155816000Y-102362000D03*
%TD*%
M02*
