%TF.GenerationSoftware,KiCad,Pcbnew,(6.0.8)*%
%TF.CreationDate,2022-10-25T18:18:37+09:00*%
%TF.ProjectId,amp-input,616d702d-696e-4707-9574-2e6b69636164,rev?*%
%TF.SameCoordinates,Original*%
%TF.FileFunction,Profile,NP*%
%FSLAX46Y46*%
G04 Gerber Fmt 4.6, Leading zero omitted, Abs format (unit mm)*
G04 Created by KiCad (PCBNEW (6.0.8)) date 2022-10-25 18:18:37*
%MOMM*%
%LPD*%
G01*
G04 APERTURE LIST*
%TA.AperFunction,Profile*%
%ADD10C,0.100000*%
%TD*%
%TA.AperFunction,Profile*%
%ADD11C,0.120000*%
%TD*%
G04 APERTURE END LIST*
D10*
X211836000Y-119100600D02*
X211836000Y-59639200D01*
X118084600Y-59639200D02*
X114514400Y-59639200D01*
X93319600Y-59639200D02*
X93319600Y-119100600D01*
X131084600Y-59639200D02*
X140411200Y-59639200D01*
X198216800Y-59639200D02*
X211836000Y-59639200D01*
X93319600Y-119100600D02*
X211836000Y-119100600D01*
X103214400Y-59639200D02*
X93319600Y-59639200D01*
X175890200Y-59639200D02*
X185216800Y-59639200D01*
X153411200Y-59639200D02*
X162890200Y-59639200D01*
D11*
%TO.C,J3*%
X144711200Y-59639200D02*
X140411200Y-59639200D01*
X145111200Y-61039200D02*
X148711200Y-61039200D01*
X144711200Y-60639200D02*
X144711200Y-59639200D01*
X149111200Y-60639200D02*
X149111200Y-59639200D01*
X149111200Y-59639200D02*
X153411200Y-59639200D01*
X148711200Y-61039200D02*
G75*
G03*
X149111200Y-60639200I-2J400002D01*
G01*
X144711200Y-60639200D02*
G75*
G03*
X145111200Y-61039200I400000J0D01*
G01*
%TO.C,J1*%
X189916800Y-61039200D02*
X193516800Y-61039200D01*
X193916800Y-59639200D02*
X198216800Y-59639200D01*
X189516800Y-59639200D02*
X185216800Y-59639200D01*
X189516800Y-60639200D02*
X189516800Y-59639200D01*
X193916800Y-60639200D02*
X193916800Y-59639200D01*
X189516800Y-60639200D02*
G75*
G03*
X189916800Y-61039200I400000J0D01*
G01*
X193516800Y-61039200D02*
G75*
G03*
X193916800Y-60639200I-2J400002D01*
G01*
%TO.C,J2*%
X167590200Y-61039200D02*
X171190200Y-61039200D01*
X167190200Y-59639200D02*
X162890200Y-59639200D01*
X171590200Y-59639200D02*
X175890200Y-59639200D01*
X171590200Y-60639200D02*
X171590200Y-59639200D01*
X167190200Y-60639200D02*
X167190200Y-59639200D01*
X167190200Y-60639200D02*
G75*
G03*
X167590200Y-61039200I400000J0D01*
G01*
X171190200Y-61039200D02*
G75*
G03*
X171590200Y-60639200I-2J400002D01*
G01*
%TO.C,J4*%
X122384600Y-60639200D02*
X122384600Y-59639200D01*
X126784600Y-59639200D02*
X131084600Y-59639200D01*
X122784600Y-61039200D02*
X126384600Y-61039200D01*
X122384600Y-59639200D02*
X118084600Y-59639200D01*
X126784600Y-60639200D02*
X126784600Y-59639200D01*
X126384600Y-61039200D02*
G75*
G03*
X126784600Y-60639200I-2J400002D01*
G01*
X122384600Y-60639200D02*
G75*
G03*
X122784600Y-61039200I400000J0D01*
G01*
D10*
%TO.C,J14*%
X103714400Y-59639200D02*
X103214400Y-59639200D01*
X114014400Y-61339200D02*
X114014400Y-59639200D01*
X105514400Y-59639200D02*
X105514400Y-61339200D01*
X112214400Y-61339200D02*
X112214400Y-59639200D01*
X105514400Y-61339200D02*
X103714400Y-61339200D01*
X103714400Y-61339200D02*
X103714400Y-59639200D01*
X114014400Y-59639200D02*
X114514400Y-59639200D01*
X105514400Y-59639200D02*
X112214400Y-59639200D01*
X114014400Y-61339200D02*
X112214400Y-61339200D01*
%TD*%
M02*
