M48
; DRILL file {KiCad (6.0.8)} date 2022年10月25日 18時18分43秒
; FORMAT={-:-/ absolute / inch / decimal}
; #@! TF.CreationDate,2022-10-25T18:18:43+09:00
; #@! TF.GenerationSoftware,Kicad,Pcbnew,(6.0.8)
; #@! TF.FileFunction,Plated,1,2,PTH
FMAT,2
INCH
; #@! TA.AperFunction,Plated,PTH,ViaDrill
T1C0.0157
; #@! TA.AperFunction,Plated,PTH,ComponentDrill
T2C0.0157
; #@! TA.AperFunction,Plated,PTH,ComponentDrill
T3C0.0236
; #@! TA.AperFunction,Plated,PTH,ComponentDrill
T4C0.0315
; #@! TA.AperFunction,Plated,PTH,ComponentDrill
T5C0.0374
; #@! TA.AperFunction,Plated,PTH,ComponentDrill
T6C0.0472
; #@! TA.AperFunction,Plated,PTH,ComponentDrill
T7C0.0669
; #@! TA.AperFunction,Plated,PTH,ComponentDrill
T8C0.1260
; #@! TA.AperFunction,Plated,PTH,ComponentDrill
T9C0.2087
%
G90
G05
T1
X4.915Y-4.015
X5.06Y-3.26
X5.065Y-4.315
X5.12Y-3.78
X5.48Y-3.18
X5.56Y-3.86
X5.82Y-3.08
X6.04Y-4.22
X6.255Y-3.747
X6.394Y-4.408
X6.88Y-2.92
X6.9Y-3.86
X6.92Y-4.255
X7.21Y-2.95
X7.26Y-3.86
X7.58Y-2.92
X7.72Y-3.7
X7.76Y-3.94
T3
X6.068Y-2.9679
X6.1138Y-2.8573
X6.1138Y-3.0786
X6.2245Y-2.8114
X6.2245Y-3.1244
X6.3351Y-2.8573
X6.3351Y-3.0786
X6.381Y-2.9679
T5
X5.9416Y-4.4
X6.04Y-4.4
X6.1384Y-4.4
X6.2369Y-4.4
T7
X4.8045Y-3.132
X4.8045Y-3.2879
X4.8045Y-3.4438
X4.8045Y-3.5997
X4.8045Y-3.7556
X4.8045Y-3.9115
X5.3428Y-3.2894
X5.3428Y-3.4453
X5.3428Y-3.6012
X5.3428Y-3.7571
X5.3428Y-3.913
X5.3428Y-4.0689
X5.7228Y-3.2894
X5.7228Y-3.4453
X5.7228Y-3.6012
X5.7228Y-3.7571
X5.7228Y-3.913
X5.7228Y-4.0689
X6.2361Y-3.3187
X6.2361Y-3.4746
X6.7349Y-3.2909
X6.7349Y-3.4468
X6.7349Y-3.6027
X6.7349Y-3.7586
X6.7349Y-3.9145
X6.7349Y-4.0704
X7.1212Y-3.2909
X7.1212Y-3.4468
X7.1212Y-3.6027
X7.1212Y-3.7586
X7.1212Y-3.9145
X7.1212Y-4.0704
X7.5228Y-3.1294
X7.5228Y-3.2853
X7.5228Y-3.4412
X7.5228Y-3.5971
X7.5228Y-3.753
X7.5228Y-3.9089
X7.9028Y-3.1294
X7.9028Y-3.2853
X7.9028Y-3.4412
X7.9028Y-3.5971
X7.9028Y-3.753
X7.9028Y-3.9089
T8
X3.886Y-2.568
X3.886Y-4.448
X8.14Y-2.5679
X8.14Y-4.4479
T9
X6.2245Y-2.9679
T2
G00X4.7081Y-2.7023
M15
G01X4.7081Y-2.7417
M16
G05
G00X4.8065Y-2.7023
M15
G01X4.8065Y-2.7417
M16
G05
G00X4.9246Y-2.5252
M15
G01X4.8852Y-2.5252
M16
G05
G00X5.0033Y-2.7417
M15
G01X5.0033Y-2.7023
M16
G05
G00X5.1018Y-2.7417
M15
G01X5.1018Y-2.7023
M16
G05
G00X5.5871Y-2.7023
M15
G01X5.5871Y-2.7417
M16
G05
G00X5.6855Y-2.7023
M15
G01X5.6855Y-2.7417
M16
G05
G00X5.8036Y-2.5252
M15
G01X5.7642Y-2.5252
M16
G05
G00X5.8823Y-2.7417
M15
G01X5.8823Y-2.7023
M16
G05
G00X5.9808Y-2.7417
M15
G01X5.9808Y-2.7023
M16
G05
G00X6.4721Y-2.7023
M15
G01X6.4721Y-2.7417
M16
G05
G00X6.5705Y-2.7023
M15
G01X6.5705Y-2.7417
M16
G05
G00X6.6886Y-2.5252
M15
G01X6.6492Y-2.5252
M16
G05
G00X6.7673Y-2.7417
M15
G01X6.7673Y-2.7023
M16
G05
G00X6.8658Y-2.7417
M15
G01X6.8658Y-2.7023
M16
G05
G00X7.3511Y-2.7023
M15
G01X7.3511Y-2.7417
M16
G05
G00X7.4495Y-2.7023
M15
G01X7.4495Y-2.7417
M16
G05
G00X7.5676Y-2.5252
M15
G01X7.5282Y-2.5252
M16
G05
G00X7.6463Y-2.7417
M15
G01X7.6463Y-2.7023
M16
G05
G00X7.7448Y-2.7417
M15
G01X7.7448Y-2.7023
M16
G05
T4
G00X4.286Y-2.6511
M15
G01X4.286Y-2.7141
M16
G05
T6
G00X4.2624Y-2.5055
M15
G01X4.3096Y-2.5055
M16
G05
T0
M30
