%TF.GenerationSoftware,KiCad,Pcbnew,(6.0.8)*%
%TF.CreationDate,2022-10-25T18:18:37+09:00*%
%TF.ProjectId,amp-input,616d702d-696e-4707-9574-2e6b69636164,rev?*%
%TF.SameCoordinates,Original*%
%TF.FileFunction,Legend,Top*%
%TF.FilePolarity,Positive*%
%FSLAX46Y46*%
G04 Gerber Fmt 4.6, Leading zero omitted, Abs format (unit mm)*
G04 Created by KiCad (PCBNEW (6.0.8)) date 2022-10-25 18:18:37*
%MOMM*%
%LPD*%
G01*
G04 APERTURE LIST*
%ADD10C,0.400000*%
%ADD11C,0.150000*%
%ADD12C,0.120000*%
G04 APERTURE END LIST*
D10*
X101816276Y-76270057D02*
X101721038Y-76527200D01*
X101721038Y-76955771D01*
X101816276Y-77127200D01*
X101911514Y-77212914D01*
X102101990Y-77298628D01*
X102292466Y-77298628D01*
X102482942Y-77212914D01*
X102578180Y-77127200D01*
X102673419Y-76955771D01*
X102768657Y-76612914D01*
X102863895Y-76441485D01*
X102959133Y-76355771D01*
X103149609Y-76270057D01*
X103340085Y-76270057D01*
X103530561Y-76355771D01*
X103625800Y-76441485D01*
X103721038Y-76612914D01*
X103721038Y-77041485D01*
X103625800Y-77298628D01*
X103054371Y-78841485D02*
X101721038Y-78841485D01*
X103054371Y-78070057D02*
X102006752Y-78070057D01*
X101816276Y-78155771D01*
X101721038Y-78327200D01*
X101721038Y-78584342D01*
X101816276Y-78755771D01*
X101911514Y-78841485D01*
X101721038Y-79698628D02*
X103054371Y-79698628D01*
X102673419Y-79698628D02*
X102863895Y-79784342D01*
X102959133Y-79870057D01*
X103054371Y-80041485D01*
X103054371Y-80212914D01*
X101721038Y-80812914D02*
X103054371Y-80812914D01*
X102673419Y-80812914D02*
X102863895Y-80898628D01*
X102959133Y-80984342D01*
X103054371Y-81155771D01*
X103054371Y-81327200D01*
X101721038Y-82184342D02*
X101816276Y-82012914D01*
X101911514Y-81927200D01*
X102101990Y-81841485D01*
X102673419Y-81841485D01*
X102863895Y-81927200D01*
X102959133Y-82012914D01*
X103054371Y-82184342D01*
X103054371Y-82441485D01*
X102959133Y-82612914D01*
X102863895Y-82698628D01*
X102673419Y-82784342D01*
X102101990Y-82784342D01*
X101911514Y-82698628D01*
X101816276Y-82612914D01*
X101721038Y-82441485D01*
X101721038Y-82184342D01*
X103054371Y-84327200D02*
X101721038Y-84327200D01*
X103054371Y-83555771D02*
X102006752Y-83555771D01*
X101816276Y-83641485D01*
X101721038Y-83812914D01*
X101721038Y-84070057D01*
X101816276Y-84241485D01*
X101911514Y-84327200D01*
X103054371Y-85184342D02*
X101721038Y-85184342D01*
X102863895Y-85184342D02*
X102959133Y-85270057D01*
X103054371Y-85441485D01*
X103054371Y-85698628D01*
X102959133Y-85870057D01*
X102768657Y-85955771D01*
X101721038Y-85955771D01*
X101721038Y-87584342D02*
X103721038Y-87584342D01*
X101816276Y-87584342D02*
X101721038Y-87412914D01*
X101721038Y-87070057D01*
X101816276Y-86898628D01*
X101911514Y-86812914D01*
X102101990Y-86727200D01*
X102673419Y-86727200D01*
X102863895Y-86812914D01*
X102959133Y-86898628D01*
X103054371Y-87070057D01*
X103054371Y-87412914D01*
X102959133Y-87584342D01*
X101721038Y-89812914D02*
X103721038Y-89812914D01*
X103054371Y-90670057D02*
X101721038Y-90670057D01*
X102863895Y-90670057D02*
X102959133Y-90755771D01*
X103054371Y-90927200D01*
X103054371Y-91184342D01*
X102959133Y-91355771D01*
X102768657Y-91441485D01*
X101721038Y-91441485D01*
X103054371Y-92298628D02*
X101054371Y-92298628D01*
X102959133Y-92298628D02*
X103054371Y-92470057D01*
X103054371Y-92812914D01*
X102959133Y-92984342D01*
X102863895Y-93070057D01*
X102673419Y-93155771D01*
X102101990Y-93155771D01*
X101911514Y-93070057D01*
X101816276Y-92984342D01*
X101721038Y-92812914D01*
X101721038Y-92470057D01*
X101816276Y-92298628D01*
X103054371Y-94698628D02*
X101721038Y-94698628D01*
X103054371Y-93927200D02*
X102006752Y-93927200D01*
X101816276Y-94012914D01*
X101721038Y-94184342D01*
X101721038Y-94441485D01*
X101816276Y-94612914D01*
X101911514Y-94698628D01*
X103054371Y-95298628D02*
X103054371Y-95984342D01*
X103721038Y-95555771D02*
X102006752Y-95555771D01*
X101816276Y-95641485D01*
X101721038Y-95812914D01*
X101721038Y-95984342D01*
X102768657Y-98555771D02*
X102673419Y-98812914D01*
X102578180Y-98898628D01*
X102387704Y-98984342D01*
X102101990Y-98984342D01*
X101911514Y-98898628D01*
X101816276Y-98812914D01*
X101721038Y-98641485D01*
X101721038Y-97955771D01*
X103721038Y-97955771D01*
X103721038Y-98555771D01*
X103625800Y-98727200D01*
X103530561Y-98812914D01*
X103340085Y-98898628D01*
X103149609Y-98898628D01*
X102959133Y-98812914D01*
X102863895Y-98727200D01*
X102768657Y-98555771D01*
X102768657Y-97955771D01*
X101721038Y-100012914D02*
X101816276Y-99841485D01*
X101911514Y-99755771D01*
X102101990Y-99670057D01*
X102673419Y-99670057D01*
X102863895Y-99755771D01*
X102959133Y-99841485D01*
X103054371Y-100012914D01*
X103054371Y-100270057D01*
X102959133Y-100441485D01*
X102863895Y-100527200D01*
X102673419Y-100612914D01*
X102101990Y-100612914D01*
X101911514Y-100527200D01*
X101816276Y-100441485D01*
X101721038Y-100270057D01*
X101721038Y-100012914D01*
X101721038Y-102155771D02*
X102768657Y-102155771D01*
X102959133Y-102070057D01*
X103054371Y-101898628D01*
X103054371Y-101555771D01*
X102959133Y-101384342D01*
X101816276Y-102155771D02*
X101721038Y-101984342D01*
X101721038Y-101555771D01*
X101816276Y-101384342D01*
X102006752Y-101298628D01*
X102197228Y-101298628D01*
X102387704Y-101384342D01*
X102482942Y-101555771D01*
X102482942Y-101984342D01*
X102578180Y-102155771D01*
X101721038Y-103012914D02*
X103054371Y-103012914D01*
X102673419Y-103012914D02*
X102863895Y-103098628D01*
X102959133Y-103184342D01*
X103054371Y-103355771D01*
X103054371Y-103527200D01*
X101721038Y-104898628D02*
X103721038Y-104898628D01*
X101816276Y-104898628D02*
X101721038Y-104727200D01*
X101721038Y-104384342D01*
X101816276Y-104212914D01*
X101911514Y-104127200D01*
X102101990Y-104041485D01*
X102673419Y-104041485D01*
X102863895Y-104127200D01*
X102959133Y-104212914D01*
X103054371Y-104384342D01*
X103054371Y-104727200D01*
X102959133Y-104898628D01*
X98501038Y-76998628D02*
X99453419Y-76398628D01*
X98501038Y-75970057D02*
X100501038Y-75970057D01*
X100501038Y-76655771D01*
X100405800Y-76827200D01*
X100310561Y-76912914D01*
X100120085Y-76998628D01*
X99834371Y-76998628D01*
X99643895Y-76912914D01*
X99548657Y-76827200D01*
X99453419Y-76655771D01*
X99453419Y-75970057D01*
X99834371Y-78541485D02*
X98501038Y-78541485D01*
X100596276Y-78112914D02*
X99167704Y-77684342D01*
X99167704Y-78798628D01*
X100596276Y-80770057D02*
X98024847Y-79227200D01*
X98501038Y-82312914D02*
X98501038Y-81284342D01*
X98501038Y-81798628D02*
X100501038Y-81798628D01*
X100215323Y-81627200D01*
X100024847Y-81455771D01*
X99929609Y-81284342D01*
X100501038Y-83427200D02*
X100501038Y-83598628D01*
X100405800Y-83770057D01*
X100310561Y-83855771D01*
X100120085Y-83941485D01*
X99739133Y-84027200D01*
X99262942Y-84027200D01*
X98881990Y-83941485D01*
X98691514Y-83855771D01*
X98596276Y-83770057D01*
X98501038Y-83598628D01*
X98501038Y-83427200D01*
X98596276Y-83255771D01*
X98691514Y-83170057D01*
X98881990Y-83084342D01*
X99262942Y-82998628D01*
X99739133Y-82998628D01*
X100120085Y-83084342D01*
X100310561Y-83170057D01*
X100405800Y-83255771D01*
X100501038Y-83427200D01*
X100596276Y-86084342D02*
X98024847Y-84541485D01*
X100310561Y-86598628D02*
X100405800Y-86684342D01*
X100501038Y-86855771D01*
X100501038Y-87284342D01*
X100405800Y-87455771D01*
X100310561Y-87541485D01*
X100120085Y-87627200D01*
X99929609Y-87627200D01*
X99643895Y-87541485D01*
X98501038Y-86512914D01*
X98501038Y-87627200D01*
X100501038Y-89255771D02*
X100501038Y-88398628D01*
X99548657Y-88312914D01*
X99643895Y-88398628D01*
X99739133Y-88570057D01*
X99739133Y-88998628D01*
X99643895Y-89170057D01*
X99548657Y-89255771D01*
X99358180Y-89341485D01*
X98881990Y-89341485D01*
X98691514Y-89255771D01*
X98596276Y-89170057D01*
X98501038Y-88998628D01*
X98501038Y-88570057D01*
X98596276Y-88398628D01*
X98691514Y-88312914D01*
X100501038Y-92598628D02*
X98501038Y-93198628D01*
X100501038Y-93798628D01*
X98596276Y-95084342D02*
X98501038Y-94912914D01*
X98501038Y-94570057D01*
X98596276Y-94398628D01*
X98786752Y-94312914D01*
X99548657Y-94312914D01*
X99739133Y-94398628D01*
X99834371Y-94570057D01*
X99834371Y-94912914D01*
X99739133Y-95084342D01*
X99548657Y-95170057D01*
X99358180Y-95170057D01*
X99167704Y-94312914D01*
X98501038Y-95941485D02*
X99834371Y-95941485D01*
X99453419Y-95941485D02*
X99643895Y-96027200D01*
X99739133Y-96112914D01*
X99834371Y-96284342D01*
X99834371Y-96455771D01*
X98691514Y-97055771D02*
X98596276Y-97141485D01*
X98501038Y-97055771D01*
X98596276Y-96970057D01*
X98691514Y-97055771D01*
X98501038Y-97055771D01*
X100501038Y-99627200D02*
X100501038Y-99798628D01*
X100405800Y-99970057D01*
X100310561Y-100055771D01*
X100120085Y-100141485D01*
X99739133Y-100227200D01*
X99262942Y-100227200D01*
X98881990Y-100141485D01*
X98691514Y-100055771D01*
X98596276Y-99970057D01*
X98501038Y-99798628D01*
X98501038Y-99627200D01*
X98596276Y-99455771D01*
X98691514Y-99370057D01*
X98881990Y-99284342D01*
X99262942Y-99198628D01*
X99739133Y-99198628D01*
X100120085Y-99284342D01*
X100310561Y-99370057D01*
X100405800Y-99455771D01*
X100501038Y-99627200D01*
X98691514Y-100998628D02*
X98596276Y-101084342D01*
X98501038Y-100998628D01*
X98596276Y-100912914D01*
X98691514Y-100998628D01*
X98501038Y-100998628D01*
X100501038Y-102198628D02*
X100501038Y-102370057D01*
X100405800Y-102541485D01*
X100310561Y-102627200D01*
X100120085Y-102712914D01*
X99739133Y-102798628D01*
X99262942Y-102798628D01*
X98881990Y-102712914D01*
X98691514Y-102627200D01*
X98596276Y-102541485D01*
X98501038Y-102370057D01*
X98501038Y-102198628D01*
X98596276Y-102027200D01*
X98691514Y-101941485D01*
X98881990Y-101855771D01*
X99262942Y-101770057D01*
X99739133Y-101770057D01*
X100120085Y-101855771D01*
X100310561Y-101941485D01*
X100405800Y-102027200D01*
X100501038Y-102198628D01*
X98691514Y-103570057D02*
X98596276Y-103655771D01*
X98501038Y-103570057D01*
X98596276Y-103484342D01*
X98691514Y-103570057D01*
X98501038Y-103570057D01*
X98501038Y-105370057D02*
X98501038Y-104341485D01*
X98501038Y-104855771D02*
X100501038Y-104855771D01*
X100215323Y-104684342D01*
X100024847Y-104512914D01*
X99929609Y-104341485D01*
D11*
%TO.C,J9*%
X173302380Y-106706333D02*
X174016666Y-106706333D01*
X174159523Y-106753952D01*
X174254761Y-106849190D01*
X174302380Y-106992047D01*
X174302380Y-107087285D01*
X174302380Y-106182523D02*
X174302380Y-105992047D01*
X174254761Y-105896809D01*
X174207142Y-105849190D01*
X174064285Y-105753952D01*
X173873809Y-105706333D01*
X173492857Y-105706333D01*
X173397619Y-105753952D01*
X173350000Y-105801571D01*
X173302380Y-105896809D01*
X173302380Y-106087285D01*
X173350000Y-106182523D01*
X173397619Y-106230142D01*
X173492857Y-106277761D01*
X173730952Y-106277761D01*
X173826190Y-106230142D01*
X173873809Y-106182523D01*
X173921428Y-106087285D01*
X173921428Y-105896809D01*
X173873809Y-105801571D01*
X173826190Y-105753952D01*
X173730952Y-105706333D01*
%TO.C,J5*%
X162634380Y-86608833D02*
X163348666Y-86608833D01*
X163491523Y-86656452D01*
X163586761Y-86751690D01*
X163634380Y-86894547D01*
X163634380Y-86989785D01*
X162634380Y-85656452D02*
X162634380Y-86132642D01*
X163110571Y-86180261D01*
X163062952Y-86132642D01*
X163015333Y-86037404D01*
X163015333Y-85799309D01*
X163062952Y-85704071D01*
X163110571Y-85656452D01*
X163205809Y-85608833D01*
X163443904Y-85608833D01*
X163539142Y-85656452D01*
X163586761Y-85704071D01*
X163634380Y-85799309D01*
X163634380Y-86037404D01*
X163586761Y-86132642D01*
X163539142Y-86180261D01*
%TO.C,H4*%
X211008380Y-113738904D02*
X210008380Y-113738904D01*
X210484571Y-113738904D02*
X210484571Y-113167476D01*
X211008380Y-113167476D02*
X210008380Y-113167476D01*
X210341714Y-112262714D02*
X211008380Y-112262714D01*
X209960761Y-112500809D02*
X210675047Y-112738904D01*
X210675047Y-112119857D01*
%TO.C,H3*%
X102956780Y-65989104D02*
X101956780Y-65989104D01*
X102432971Y-65989104D02*
X102432971Y-65417676D01*
X102956780Y-65417676D02*
X101956780Y-65417676D01*
X101956780Y-65036723D02*
X101956780Y-64417676D01*
X102337733Y-64751009D01*
X102337733Y-64608152D01*
X102385352Y-64512914D01*
X102432971Y-64465295D01*
X102528209Y-64417676D01*
X102766304Y-64417676D01*
X102861542Y-64465295D01*
X102909161Y-64512914D01*
X102956780Y-64608152D01*
X102956780Y-64893866D01*
X102909161Y-64989104D01*
X102861542Y-65036723D01*
%TO.C,H2*%
X211008380Y-65986904D02*
X210008380Y-65986904D01*
X210484571Y-65986904D02*
X210484571Y-65415476D01*
X211008380Y-65415476D02*
X210008380Y-65415476D01*
X210103619Y-64986904D02*
X210056000Y-64939285D01*
X210008380Y-64844047D01*
X210008380Y-64605952D01*
X210056000Y-64510714D01*
X210103619Y-64463095D01*
X210198857Y-64415476D01*
X210294095Y-64415476D01*
X210436952Y-64463095D01*
X211008380Y-65034523D01*
X211008380Y-64415476D01*
%TO.C,H1*%
X164854380Y-76146904D02*
X163854380Y-76146904D01*
X164330571Y-76146904D02*
X164330571Y-75575476D01*
X164854380Y-75575476D02*
X163854380Y-75575476D01*
X164854380Y-74575476D02*
X164854380Y-75146904D01*
X164854380Y-74861190D02*
X163854380Y-74861190D01*
X163997238Y-74956428D01*
X164092476Y-75051666D01*
X164140095Y-75146904D01*
%TO.C,J3*%
X146577866Y-72391580D02*
X146577866Y-73105866D01*
X146530247Y-73248723D01*
X146435009Y-73343961D01*
X146292152Y-73391580D01*
X146196914Y-73391580D01*
X146958819Y-72391580D02*
X147577866Y-72391580D01*
X147244533Y-72772533D01*
X147387390Y-72772533D01*
X147482628Y-72820152D01*
X147530247Y-72867771D01*
X147577866Y-72963009D01*
X147577866Y-73201104D01*
X147530247Y-73296342D01*
X147482628Y-73343961D01*
X147387390Y-73391580D01*
X147101676Y-73391580D01*
X147006438Y-73343961D01*
X146958819Y-73296342D01*
%TO.C,J13*%
X116406380Y-90262523D02*
X117120666Y-90262523D01*
X117263523Y-90310142D01*
X117358761Y-90405380D01*
X117406380Y-90548238D01*
X117406380Y-90643476D01*
X117406380Y-89262523D02*
X117406380Y-89833952D01*
X117406380Y-89548238D02*
X116406380Y-89548238D01*
X116549238Y-89643476D01*
X116644476Y-89738714D01*
X116692095Y-89833952D01*
X116406380Y-88929190D02*
X116406380Y-88310142D01*
X116787333Y-88643476D01*
X116787333Y-88500619D01*
X116834952Y-88405380D01*
X116882571Y-88357761D01*
X116977809Y-88310142D01*
X117215904Y-88310142D01*
X117311142Y-88357761D01*
X117358761Y-88405380D01*
X117406380Y-88500619D01*
X117406380Y-88786333D01*
X117358761Y-88881571D01*
X117311142Y-88929190D01*
%TO.C,J1*%
X191383466Y-72391580D02*
X191383466Y-73105866D01*
X191335847Y-73248723D01*
X191240609Y-73343961D01*
X191097752Y-73391580D01*
X191002514Y-73391580D01*
X192383466Y-73391580D02*
X191812038Y-73391580D01*
X192097752Y-73391580D02*
X192097752Y-72391580D01*
X192002514Y-72534438D01*
X191907276Y-72629676D01*
X191812038Y-72677295D01*
%TO.C,J2*%
X169056866Y-72391580D02*
X169056866Y-73105866D01*
X169009247Y-73248723D01*
X168914009Y-73343961D01*
X168771152Y-73391580D01*
X168675914Y-73391580D01*
X169485438Y-72486819D02*
X169533057Y-72439200D01*
X169628295Y-72391580D01*
X169866390Y-72391580D01*
X169961628Y-72439200D01*
X170009247Y-72486819D01*
X170056866Y-72582057D01*
X170056866Y-72677295D01*
X170009247Y-72820152D01*
X169437819Y-73391580D01*
X170056866Y-73391580D01*
%TO.C,J12*%
X139266380Y-94260023D02*
X139980666Y-94260023D01*
X140123523Y-94307642D01*
X140218761Y-94402880D01*
X140266380Y-94545738D01*
X140266380Y-94640976D01*
X140266380Y-93260023D02*
X140266380Y-93831452D01*
X140266380Y-93545738D02*
X139266380Y-93545738D01*
X139409238Y-93640976D01*
X139504476Y-93736214D01*
X139552095Y-93831452D01*
X139361619Y-92879071D02*
X139314000Y-92831452D01*
X139266380Y-92736214D01*
X139266380Y-92498119D01*
X139314000Y-92402880D01*
X139361619Y-92355261D01*
X139456857Y-92307642D01*
X139552095Y-92307642D01*
X139694952Y-92355261D01*
X140266380Y-92926690D01*
X140266380Y-92307642D01*
%TO.C,H5*%
X102956780Y-113741104D02*
X101956780Y-113741104D01*
X102432971Y-113741104D02*
X102432971Y-113169676D01*
X102956780Y-113169676D02*
X101956780Y-113169676D01*
X101956780Y-112217295D02*
X101956780Y-112693485D01*
X102432971Y-112741104D01*
X102385352Y-112693485D01*
X102337733Y-112598247D01*
X102337733Y-112360152D01*
X102385352Y-112264914D01*
X102432971Y-112217295D01*
X102528209Y-112169676D01*
X102766304Y-112169676D01*
X102861542Y-112217295D01*
X102909161Y-112264914D01*
X102956780Y-112360152D01*
X102956780Y-112598247D01*
X102909161Y-112693485D01*
X102861542Y-112741104D01*
%TO.C,J6*%
X151538666Y-115005380D02*
X151538666Y-115719666D01*
X151491047Y-115862523D01*
X151395809Y-115957761D01*
X151252952Y-116005380D01*
X151157714Y-116005380D01*
X152443428Y-115005380D02*
X152252952Y-115005380D01*
X152157714Y-115053000D01*
X152110095Y-115100619D01*
X152014857Y-115243476D01*
X151967238Y-115433952D01*
X151967238Y-115814904D01*
X152014857Y-115910142D01*
X152062476Y-115957761D01*
X152157714Y-116005380D01*
X152348190Y-116005380D01*
X152443428Y-115957761D01*
X152491047Y-115910142D01*
X152538666Y-115814904D01*
X152538666Y-115576809D01*
X152491047Y-115481571D01*
X152443428Y-115433952D01*
X152348190Y-115386333D01*
X152157714Y-115386333D01*
X152062476Y-115433952D01*
X152014857Y-115481571D01*
X151967238Y-115576809D01*
%TO.C,J11*%
X148918380Y-94260023D02*
X149632666Y-94260023D01*
X149775523Y-94307642D01*
X149870761Y-94402880D01*
X149918380Y-94545738D01*
X149918380Y-94640976D01*
X149918380Y-93260023D02*
X149918380Y-93831452D01*
X149918380Y-93545738D02*
X148918380Y-93545738D01*
X149061238Y-93640976D01*
X149156476Y-93736214D01*
X149204095Y-93831452D01*
X149918380Y-92307642D02*
X149918380Y-92879071D01*
X149918380Y-92593357D02*
X148918380Y-92593357D01*
X149061238Y-92688595D01*
X149156476Y-92783833D01*
X149204095Y-92879071D01*
%TO.C,J10*%
X182446380Y-108198523D02*
X183160666Y-108198523D01*
X183303523Y-108246142D01*
X183398761Y-108341380D01*
X183446380Y-108484238D01*
X183446380Y-108579476D01*
X183446380Y-107198523D02*
X183446380Y-107769952D01*
X183446380Y-107484238D02*
X182446380Y-107484238D01*
X182589238Y-107579476D01*
X182684476Y-107674714D01*
X182732095Y-107769952D01*
X182446380Y-106579476D02*
X182446380Y-106484238D01*
X182494000Y-106389000D01*
X182541619Y-106341380D01*
X182636857Y-106293761D01*
X182827333Y-106246142D01*
X183065428Y-106246142D01*
X183255904Y-106293761D01*
X183351142Y-106341380D01*
X183398761Y-106389000D01*
X183446380Y-106484238D01*
X183446380Y-106579476D01*
X183398761Y-106674714D01*
X183351142Y-106722333D01*
X183255904Y-106769952D01*
X183065428Y-106817571D01*
X182827333Y-106817571D01*
X182636857Y-106769952D01*
X182541619Y-106722333D01*
X182494000Y-106674714D01*
X182446380Y-106579476D01*
%TO.C,TP2*%
X157711180Y-97781904D02*
X157711180Y-97210476D01*
X158711180Y-97496190D02*
X157711180Y-97496190D01*
X158711180Y-96877142D02*
X157711180Y-96877142D01*
X157711180Y-96496190D01*
X157758800Y-96400952D01*
X157806419Y-96353333D01*
X157901657Y-96305714D01*
X158044514Y-96305714D01*
X158139752Y-96353333D01*
X158187371Y-96400952D01*
X158234990Y-96496190D01*
X158234990Y-96877142D01*
X157806419Y-95924761D02*
X157758800Y-95877142D01*
X157711180Y-95781904D01*
X157711180Y-95543809D01*
X157758800Y-95448571D01*
X157806419Y-95400952D01*
X157901657Y-95353333D01*
X157996895Y-95353333D01*
X158139752Y-95400952D01*
X158711180Y-95972380D01*
X158711180Y-95353333D01*
%TO.C,J4*%
X124251266Y-72391580D02*
X124251266Y-73105866D01*
X124203647Y-73248723D01*
X124108409Y-73343961D01*
X123965552Y-73391580D01*
X123870314Y-73391580D01*
X125156028Y-72724914D02*
X125156028Y-73391580D01*
X124917933Y-72343961D02*
X124679838Y-73058247D01*
X125298885Y-73058247D01*
%TO.C,J8*%
X202258380Y-103150333D02*
X202972666Y-103150333D01*
X203115523Y-103197952D01*
X203210761Y-103293190D01*
X203258380Y-103436047D01*
X203258380Y-103531285D01*
X202686952Y-102531285D02*
X202639333Y-102626523D01*
X202591714Y-102674142D01*
X202496476Y-102721761D01*
X202448857Y-102721761D01*
X202353619Y-102674142D01*
X202306000Y-102626523D01*
X202258380Y-102531285D01*
X202258380Y-102340809D01*
X202306000Y-102245571D01*
X202353619Y-102197952D01*
X202448857Y-102150333D01*
X202496476Y-102150333D01*
X202591714Y-102197952D01*
X202639333Y-102245571D01*
X202686952Y-102340809D01*
X202686952Y-102531285D01*
X202734571Y-102626523D01*
X202782190Y-102674142D01*
X202877428Y-102721761D01*
X203067904Y-102721761D01*
X203163142Y-102674142D01*
X203210761Y-102626523D01*
X203258380Y-102531285D01*
X203258380Y-102340809D01*
X203210761Y-102245571D01*
X203163142Y-102197952D01*
X203067904Y-102150333D01*
X202877428Y-102150333D01*
X202782190Y-102197952D01*
X202734571Y-102245571D01*
X202686952Y-102340809D01*
%TO.C,J14*%
X108054876Y-60741580D02*
X108054876Y-61455866D01*
X108007257Y-61598723D01*
X107912019Y-61693961D01*
X107769161Y-61741580D01*
X107673923Y-61741580D01*
X109054876Y-61741580D02*
X108483447Y-61741580D01*
X108769161Y-61741580D02*
X108769161Y-60741580D01*
X108673923Y-60884438D01*
X108578685Y-60979676D01*
X108483447Y-61027295D01*
X109912019Y-61074914D02*
X109912019Y-61741580D01*
X109673923Y-60693961D02*
X109435828Y-61408247D01*
X110054876Y-61408247D01*
%TO.C,J7*%
X193622380Y-103150333D02*
X194336666Y-103150333D01*
X194479523Y-103197952D01*
X194574761Y-103293190D01*
X194622380Y-103436047D01*
X194622380Y-103531285D01*
X193622380Y-102769380D02*
X193622380Y-102102714D01*
X194622380Y-102531285D01*
D12*
%TO.C,J9*%
X170766000Y-106248000D02*
X171066000Y-105648000D01*
X167256000Y-104248000D02*
X167256000Y-82728000D01*
X171366000Y-106248000D02*
X170766000Y-106248000D01*
X167256000Y-82728000D02*
X168956000Y-82728000D01*
X168956000Y-105448000D02*
X168956000Y-104248000D01*
X175976000Y-81528000D02*
X175976000Y-105448000D01*
X168956000Y-104248000D02*
X167256000Y-104248000D01*
X168956000Y-81528000D02*
X175976000Y-81528000D01*
X171066000Y-105648000D02*
X171366000Y-106248000D01*
X168956000Y-82728000D02*
X168956000Y-81528000D01*
X175976000Y-105448000D02*
X168956000Y-105448000D01*
%TO.C,J5*%
X153488000Y-90315500D02*
X153488000Y-82235500D01*
X158098000Y-81435500D02*
X158698000Y-81435500D01*
X160508000Y-82235500D02*
X160508000Y-83435500D01*
X158698000Y-81435500D02*
X158398000Y-82035500D01*
X160508000Y-83435500D02*
X162208000Y-83435500D01*
X162208000Y-89115500D02*
X160508000Y-89115500D01*
X153488000Y-82235500D02*
X160508000Y-82235500D01*
X158398000Y-82035500D02*
X158098000Y-81435500D01*
X160508000Y-90315500D02*
X153488000Y-90315500D01*
X162208000Y-83435500D02*
X162208000Y-89115500D01*
X160508000Y-89115500D02*
X160508000Y-90315500D01*
%TO.C,J3*%
X142411200Y-60839200D02*
X142411200Y-59639200D01*
X149911200Y-57839200D02*
X149911200Y-59639200D01*
X142411200Y-59639200D02*
X143911200Y-59639200D01*
X152911200Y-71839200D02*
X140911200Y-71839200D01*
X151411200Y-59639200D02*
X151411200Y-60839200D01*
X151411200Y-60839200D02*
X152911200Y-60839200D01*
X143911200Y-59639200D02*
X143911200Y-57839200D01*
X152911200Y-60839200D02*
X152911200Y-71839200D01*
X144911200Y-60839200D02*
X148911200Y-60839200D01*
X148911200Y-60839200D02*
X148911200Y-57839200D01*
X140911200Y-71839200D02*
X140911200Y-60839200D01*
X140911200Y-60839200D02*
X142411200Y-60839200D01*
X144911200Y-57839200D02*
X144911200Y-60839200D01*
X143911200Y-57839200D02*
X149911200Y-57839200D01*
X149911200Y-59639200D02*
X151411200Y-59639200D01*
%TO.C,J13*%
X121734000Y-102213000D02*
X122034000Y-101613000D01*
X118224000Y-78693000D02*
X119924000Y-78693000D01*
X122334000Y-102213000D02*
X121734000Y-102213000D01*
X119924000Y-100213000D02*
X118224000Y-100213000D01*
X119924000Y-77493000D02*
X126944000Y-77493000D01*
X119924000Y-78693000D02*
X119924000Y-77493000D01*
X122034000Y-101613000D02*
X122334000Y-102213000D01*
X126944000Y-77493000D02*
X126944000Y-101413000D01*
X119924000Y-101413000D02*
X119924000Y-100213000D01*
X126944000Y-101413000D02*
X119924000Y-101413000D01*
X118224000Y-100213000D02*
X118224000Y-78693000D01*
%TO.C,J1*%
X188716800Y-59639200D02*
X188716800Y-57839200D01*
X185716800Y-71839200D02*
X185716800Y-60839200D01*
X189716800Y-60839200D02*
X193716800Y-60839200D01*
X194716800Y-59639200D02*
X196216800Y-59639200D01*
X194716800Y-57839200D02*
X194716800Y-59639200D01*
X196216800Y-59639200D02*
X196216800Y-60839200D01*
X185716800Y-60839200D02*
X187216800Y-60839200D01*
X187216800Y-60839200D02*
X187216800Y-59639200D01*
X196216800Y-60839200D02*
X197716800Y-60839200D01*
X197716800Y-71839200D02*
X185716800Y-71839200D01*
X197716800Y-60839200D02*
X197716800Y-71839200D01*
X189716800Y-57839200D02*
X189716800Y-60839200D01*
X187216800Y-59639200D02*
X188716800Y-59639200D01*
X193716800Y-60839200D02*
X193716800Y-57839200D01*
X188716800Y-57839200D02*
X194716800Y-57839200D01*
%TO.C,J2*%
X172390200Y-59639200D02*
X173890200Y-59639200D01*
X163390200Y-71839200D02*
X163390200Y-60839200D01*
X173890200Y-60839200D02*
X175390200Y-60839200D01*
X164890200Y-59639200D02*
X166390200Y-59639200D01*
X172390200Y-57839200D02*
X172390200Y-59639200D01*
X163390200Y-60839200D02*
X164890200Y-60839200D01*
X175390200Y-71839200D02*
X163390200Y-71839200D01*
X166390200Y-57839200D02*
X172390200Y-57839200D01*
X175390200Y-60839200D02*
X175390200Y-71839200D01*
X173890200Y-59639200D02*
X173890200Y-60839200D01*
X164890200Y-60839200D02*
X164890200Y-59639200D01*
X167390200Y-57839200D02*
X167390200Y-60839200D01*
X166390200Y-59639200D02*
X166390200Y-57839200D01*
X167390200Y-60839200D02*
X171390200Y-60839200D01*
X171390200Y-60839200D02*
X171390200Y-57839200D01*
%TO.C,J12*%
X140618000Y-81490500D02*
X140618000Y-105410500D01*
X133598000Y-104210500D02*
X131898000Y-104210500D01*
X133598000Y-82690500D02*
X133598000Y-81490500D01*
X135408000Y-106210500D02*
X135708000Y-105610500D01*
X131898000Y-104210500D02*
X131898000Y-82690500D01*
X135708000Y-105610500D02*
X136008000Y-106210500D01*
X140618000Y-105410500D02*
X133598000Y-105410500D01*
X131898000Y-82690500D02*
X133598000Y-82690500D01*
X133598000Y-105410500D02*
X133598000Y-104210500D01*
X133598000Y-81490500D02*
X140618000Y-81490500D01*
X136008000Y-106210500D02*
X135408000Y-106210500D01*
%TO.C,J6*%
X160976000Y-114220000D02*
X160976000Y-108250000D01*
X157666000Y-114210000D02*
X157666000Y-113460000D01*
X160966000Y-114210000D02*
X160966000Y-113460000D01*
X157666000Y-113460000D02*
X151666000Y-113460000D01*
X160216000Y-111960000D02*
X160216000Y-109010000D01*
X151666000Y-114210000D02*
X157666000Y-114210000D01*
X149116000Y-111960000D02*
X149116000Y-109010000D01*
X160016000Y-114510000D02*
X161266000Y-114510000D01*
X159166000Y-114210000D02*
X160966000Y-114210000D01*
X148356000Y-108250000D02*
X148356000Y-114220000D01*
X150166000Y-114210000D02*
X150166000Y-113460000D01*
X148356000Y-114220000D02*
X160976000Y-114220000D01*
X159166000Y-113460000D02*
X159166000Y-114210000D01*
X161266000Y-114510000D02*
X161266000Y-113260000D01*
X160976000Y-108250000D02*
X148356000Y-108250000D01*
X160966000Y-113460000D02*
X159166000Y-113460000D01*
X150166000Y-113460000D02*
X148366000Y-113460000D01*
X148366000Y-113460000D02*
X148366000Y-114210000D01*
X148366000Y-114210000D02*
X150166000Y-114210000D01*
X160216000Y-109010000D02*
X154666000Y-109010000D01*
X160966000Y-111960000D02*
X160216000Y-111960000D01*
X151666000Y-113460000D02*
X151666000Y-114210000D01*
X149116000Y-109010000D02*
X154666000Y-109010000D01*
X148366000Y-111960000D02*
X149116000Y-111960000D01*
%TO.C,J11*%
X150270000Y-105410500D02*
X143250000Y-105410500D01*
X143250000Y-82690500D02*
X143250000Y-81490500D01*
X145060000Y-106210500D02*
X145360000Y-105610500D01*
X150270000Y-81490500D02*
X150270000Y-105410500D01*
X141550000Y-82690500D02*
X143250000Y-82690500D01*
X143250000Y-104210500D02*
X141550000Y-104210500D01*
X141550000Y-104210500D02*
X141550000Y-82690500D01*
X145660000Y-106210500D02*
X145060000Y-106210500D01*
X145360000Y-105610500D02*
X145660000Y-106210500D01*
X143250000Y-105410500D02*
X143250000Y-104210500D01*
X143250000Y-81490500D02*
X150270000Y-81490500D01*
%TO.C,J10*%
X178768000Y-81528000D02*
X185788000Y-81528000D01*
X178768000Y-104248000D02*
X177068000Y-104248000D01*
X178768000Y-82728000D02*
X178768000Y-81528000D01*
X177068000Y-82728000D02*
X178768000Y-82728000D01*
X178768000Y-105448000D02*
X178768000Y-104248000D01*
X185788000Y-105448000D02*
X178768000Y-105448000D01*
X177068000Y-104248000D02*
X177068000Y-82728000D01*
X180578000Y-106248000D02*
X180878000Y-105648000D01*
X180878000Y-105648000D02*
X181178000Y-106248000D01*
X185788000Y-81528000D02*
X185788000Y-105448000D01*
X181178000Y-106248000D02*
X180578000Y-106248000D01*
%TO.C,TP2*%
X157460800Y-96520000D02*
G75*
G03*
X157460800Y-96520000I-1200000J0D01*
G01*
%TO.C,J4*%
X118584600Y-71839200D02*
X118584600Y-60839200D01*
X130584600Y-60839200D02*
X130584600Y-71839200D01*
X118584600Y-60839200D02*
X120084600Y-60839200D01*
X122584600Y-57839200D02*
X122584600Y-60839200D01*
X130584600Y-71839200D02*
X118584600Y-71839200D01*
X121584600Y-57839200D02*
X127584600Y-57839200D01*
X120084600Y-59639200D02*
X121584600Y-59639200D01*
X127584600Y-59639200D02*
X129084600Y-59639200D01*
X127584600Y-57839200D02*
X127584600Y-59639200D01*
X126584600Y-60839200D02*
X126584600Y-57839200D01*
X129084600Y-60839200D02*
X130584600Y-60839200D01*
X120084600Y-60839200D02*
X120084600Y-59639200D01*
X122584600Y-60839200D02*
X126584600Y-60839200D01*
X129084600Y-59639200D02*
X129084600Y-60839200D01*
X121584600Y-59639200D02*
X121584600Y-57839200D01*
%TO.C,J8*%
X205642000Y-101346500D02*
X198622000Y-101346500D01*
X196922000Y-100146500D02*
X196922000Y-78626500D01*
X198622000Y-78626500D02*
X198622000Y-77426500D01*
X200732000Y-101546500D02*
X201032000Y-102146500D01*
X198622000Y-100146500D02*
X196922000Y-100146500D01*
X198622000Y-101346500D02*
X198622000Y-100146500D01*
X205642000Y-77426500D02*
X205642000Y-101346500D01*
X201032000Y-102146500D02*
X200432000Y-102146500D01*
X196922000Y-78626500D02*
X198622000Y-78626500D01*
X200432000Y-102146500D02*
X200732000Y-101546500D01*
X198622000Y-77426500D02*
X205642000Y-77426500D01*
%TO.C,J14*%
X104714400Y-50439200D02*
X104714400Y-59639200D01*
X112714400Y-50139200D02*
X105014400Y-50139200D01*
X113014400Y-50439200D02*
X113014400Y-59639200D01*
X103714400Y-59639200D02*
X114014400Y-59639200D01*
X113014400Y-50439200D02*
X112714400Y-50139200D01*
X103714400Y-70639200D02*
X103714400Y-59639200D01*
X104714400Y-50439200D02*
X105014400Y-50139200D01*
X114014400Y-70639200D02*
X103714400Y-70639200D01*
X114014400Y-59639200D02*
X114014400Y-70639200D01*
%TO.C,J7*%
X190780000Y-102146500D02*
X191080000Y-101546500D01*
X187270000Y-78626500D02*
X188970000Y-78626500D01*
X187270000Y-100146500D02*
X187270000Y-78626500D01*
X188970000Y-77426500D02*
X195990000Y-77426500D01*
X188970000Y-100146500D02*
X187270000Y-100146500D01*
X195990000Y-77426500D02*
X195990000Y-101346500D01*
X191080000Y-101546500D02*
X191380000Y-102146500D01*
X188970000Y-101346500D02*
X188970000Y-100146500D01*
X195990000Y-101346500D02*
X188970000Y-101346500D01*
X188970000Y-78626500D02*
X188970000Y-77426500D01*
X191380000Y-102146500D02*
X190780000Y-102146500D01*
%TD*%
M02*
